<svg xmlns="http://www.w3.org/2000/svg" width="1024" height="1024" viewBox="0 0 1024 1024"><defs><style>.cream-light{fill:#fffefa}.cream{fill:#f6f5ef}.orange{fill:#e4772d}.ink{fill:#19251e}</style></defs><g id="form-light"><path d="M 430 926 L 430 930 L 433 933 L 440 933 L 439 931 L 439 929 L 438 927 L 436 925 Z" class="cream-light"/><path d="M 371 919 L 369 921 L 369 924 L 371 926 L 373 924 L 374 922 Z" class="cream-light"/><path d="M 388 890 L 385 890 L 384 891 L 380 892 L 380 893 L 378 895 L 376 896 L 378 895 L 381 895 L 385 894 Z" class="cream-light"/><path d="M 575 363 L 574 367 L 573 368 L 573 374 L 575 376 L 576 367 L 575 366 Z" class="cream-light"/><path d="M 586 356 L 585 361 L 587 363 L 587 365 L 586 367 L 589 366 L 590 364 L 590 361 L 587 359 Z" class="cream-light"/><path d="M 591 314 L 590 319 L 589 321 L 587 322 L 588 326 L 586 328 L 584 329 L 583 331 L 583 338 L 581 342 L 584 344 L 586 342 L 587 338 L 587 332 L 592 323 L 592 321 L 593 319 L 591 316 Z" class="cream-light"/><path d="M 823 291 L 822 294 L 824 295 L 827 296 L 828 298 L 829 302 L 828 305 L 829 310 L 831 309 L 831 304 L 833 302 L 837 303 L 837 304 L 839 307 L 842 308 L 842 305 L 841 305 L 839 303 L 837 303 L 830 296 L 827 295 Z" class="cream-light"/><path d="M 777 281 L 777 284 L 778 286 L 780 286 L 781 287 L 784 287 L 784 285 L 783 284 L 781 281 L 778 283 L 779 281 Z" class="cream-light"/><path d="M 755 262 L 753 263 L 752 266 L 751 267 L 749 268 L 749 270 L 747 272 L 744 269 L 744 266 L 742 266 L 744 269 L 745 272 L 747 273 L 751 272 L 752 270 L 751 267 L 754 265 Z" class="cream-light"/><path d="M 785 259 L 787 261 L 787 262 L 789 264 L 788 267 L 792 272 L 797 275 L 798 278 L 796 280 L 794 277 L 785 272 L 786 269 L 782 265 L 782 263 L 784 262 Z" class="cream-light"/><path d="M 796 252 L 795 255 L 793 256 L 792 258 L 790 256 L 792 251 Z" class="cream-light"/><path d="M 704 249 L 704 252 L 707 254 L 709 252 L 711 252 L 710 249 L 708 248 Z" class="cream-light"/><path d="M 659 235 L 661 237 L 659 239 L 662 242 L 663 245 L 672 244 L 675 242 L 678 242 L 676 240 L 674 239 L 669 240 L 664 238 L 662 235 L 660 234 Z" class="cream-light"/><path d="M 661 224 L 660 227 L 659 229 L 661 232 L 663 231 L 663 226 Z" class="cream-light"/><path d="M 729 215 L 729 219 L 731 221 L 732 227 L 735 225 L 739 226 L 740 232 L 742 235 L 737 240 L 743 240 L 747 244 L 751 246 L 754 246 L 757 249 L 758 253 L 757 257 L 760 255 L 763 262 L 762 263 L 768 269 L 768 257 L 772 260 L 775 265 L 773 267 L 774 271 L 779 270 L 781 275 L 780 277 L 785 275 L 787 277 L 787 283 L 789 285 L 789 288 L 791 289 L 794 288 L 795 290 L 803 292 L 798 284 L 792 283 L 793 280 L 795 279 L 800 280 L 801 282 L 805 281 L 812 284 L 816 288 L 816 285 L 814 283 L 814 281 L 810 277 L 801 272 L 800 269 L 803 268 L 800 255 L 798 253 L 798 248 L 795 247 L 794 249 L 787 248 L 787 246 L 792 243 L 789 240 L 776 233 L 770 232 L 768 230 L 766 230 L 765 234 L 762 230 L 759 231 L 757 234 L 752 232 L 755 230 L 756 227 L 747 219 L 747 225 L 743 226 L 744 221 L 740 221 L 739 218 L 738 222 L 735 217 L 733 216 L 733 214 Z" class="cream-light"/><path d="M 652 206 L 652 208 L 650 212 L 647 214 L 645 212 L 645 210 L 647 208 L 648 205 Z" class="cream-light"/><path d="M 671 195 L 670 197 L 668 198 L 665 197 L 665 203 L 664 203 L 664 206 L 666 206 L 668 208 L 665 211 L 667 212 L 668 213 L 670 213 L 673 216 L 671 213 L 675 212 L 677 212 L 679 213 L 681 212 L 681 210 L 679 211 L 676 210 L 676 208 L 675 205 L 673 208 L 671 206 L 671 203 L 668 201 L 672 199 Z" class="cream-light"/><path d="M 637 193 L 640 197 L 642 197 L 643 199 L 645 199 L 647 200 L 648 202 L 645 206 L 643 202 L 639 199 L 637 199 L 635 197 L 635 195 Z" class="cream-light"/><path d="M 645 185 L 645 188 L 647 188 L 648 186 L 651 187 L 651 188 L 653 190 L 653 192 L 655 192 L 656 188 L 658 188 L 656 186 L 656 185 L 650 182 L 652 180 L 648 184 Z" class="cream-light"/><path d="M 688 186 L 685 186 L 683 184 L 681 185 L 672 179 L 666 179 L 660 176 L 656 177 L 655 180 L 659 181 L 660 178 L 661 183 L 663 185 L 663 188 L 660 190 L 660 195 L 656 195 L 650 199 L 647 198 L 646 196 L 642 196 L 639 190 L 636 192 L 634 189 L 633 195 L 631 197 L 631 191 L 627 195 L 624 195 L 624 192 L 618 193 L 614 190 L 612 192 L 610 188 L 608 189 L 610 193 L 609 200 L 605 202 L 603 200 L 601 203 L 597 204 L 597 207 L 600 205 L 606 206 L 606 209 L 608 210 L 607 206 L 608 203 L 613 201 L 614 206 L 617 207 L 615 211 L 614 209 L 610 210 L 611 212 L 609 214 L 612 213 L 619 217 L 618 226 L 614 227 L 612 226 L 615 230 L 619 230 L 623 217 L 622 214 L 626 214 L 627 220 L 631 227 L 635 225 L 639 227 L 650 225 L 650 228 L 652 228 L 653 230 L 656 229 L 656 227 L 652 226 L 653 222 L 647 217 L 650 216 L 651 211 L 654 213 L 652 215 L 656 219 L 656 221 L 656 219 L 662 214 L 661 211 L 659 211 L 656 207 L 659 204 L 660 195 L 663 196 L 663 193 L 665 191 L 663 184 L 669 181 L 689 188 Z" class="cream-light"/><path d="M 554 176 L 554 182 L 556 184 L 559 181 L 565 181 L 565 177 L 563 178 L 561 180 L 559 178 L 558 176 Z" class="cream-light"/></g><g id="form-shade"><path d="M 454 930 L 453 932 L 455 934 L 456 937 L 460 931 L 457 931 Z" class="cream"/><path d="M 359 916 L 356 916 L 354 917 L 353 919 L 356 918 L 358 920 L 357 922 L 355 924 L 351 925 L 351 927 L 353 927 L 356 925 L 360 921 L 360 918 Z" class="cream"/><path d="M 461 915 L 461 917 L 462 919 L 465 920 L 468 923 L 471 923 L 473 920 L 471 918 L 468 919 L 463 914 Z" class="cream"/><path d="M 376 907 L 373 909 L 368 910 L 367 915 L 371 915 L 373 914 L 375 912 L 376 910 Z" class="cream"/><path d="M 397 905 L 397 909 L 400 911 L 399 915 L 402 917 L 402 921 L 406 918 L 406 917 L 408 915 L 406 913 L 404 913 L 401 910 L 400 907 Z" class="cream"/><path d="M 612 902 L 610 903 L 607 907 L 607 909 L 609 909 L 614 905 Z" class="cream"/><path d="M 521 901 L 521 905 L 526 910 L 525 912 L 523 914 L 522 916 L 522 918 L 525 915 L 525 913 L 529 909 L 528 907 L 524 902 Z" class="cream"/><path d="M 500 899 L 500 901 L 503 904 L 504 907 L 503 913 L 506 913 L 511 910 L 509 905 L 509 901 L 507 899 L 505 898 Z" class="cream"/><path d="M 449 891 L 449 894 L 450 898 L 452 900 L 458 905 L 458 901 L 452 896 L 452 893 L 451 892 L 451 890 Z" class="cream"/><path d="M 475 883 L 475 888 L 478 891 L 473 896 L 472 900 L 476 900 L 478 902 L 475 905 L 476 907 L 479 908 L 480 911 L 483 917 L 489 920 L 489 917 L 488 915 L 486 913 L 485 911 L 486 907 L 483 905 L 482 903 L 484 901 L 486 901 L 485 898 L 489 896 L 478 885 Z" class="cream"/><path d="M 420 880 L 419 884 L 423 887 L 427 887 L 426 885 L 422 880 Z" class="cream"/><path d="M 632 878 L 629 881 L 628 884 L 631 888 L 630 892 L 628 891 L 627 893 L 635 893 L 637 891 L 639 893 L 642 901 L 650 903 L 648 901 L 644 899 L 642 897 L 641 894 L 639 891 L 635 888 L 634 886 L 634 881 L 633 880 Z" class="cream"/><path d="M 457 870 L 459 870 L 462 873 L 462 875 L 460 877 L 458 877 L 455 874 L 455 872 Z" class="cream"/><path d="M 427 873 L 428 876 L 432 879 L 435 879 L 437 880 L 439 882 L 439 883 L 441 885 L 443 883 L 440 882 L 433 874 L 430 871 Z" class="cream"/><path d="M 633 863 L 631 863 L 629 865 L 629 868 L 630 869 L 631 871 L 633 869 Z" class="cream"/><path d="M 490 856 L 494 856 L 496 858 L 497 858 L 498 859 L 498 860 L 500 863 L 497 869 L 499 869 L 503 873 L 503 876 L 502 878 L 500 880 L 499 883 L 499 888 L 497 890 L 494 890 L 491 888 L 488 885 L 485 885 L 482 882 L 482 876 L 483 872 L 484 870 L 486 868 L 491 868 L 488 864 L 487 864 L 485 861 L 488 859 Z" class="cream"/><path d="M 400 857 L 398 859 L 400 861 L 400 862 L 401 863 L 402 863 L 403 864 L 404 867 L 407 870 L 409 870 L 409 867 L 407 864 Z" class="cream"/><path d="M 425 851 L 427 855 L 428 858 L 428 860 L 430 860 L 431 858 L 434 851 Z" class="cream"/><path d="M 398 851 L 401 855 L 402 855 L 407 860 L 411 862 L 413 864 L 413 870 L 414 872 L 417 875 L 419 875 L 422 872 L 426 865 L 416 855 L 413 853 L 409 851 Z" class="cream"/><path d="M 453 845 L 453 847 L 451 849 L 446 849 L 443 852 L 443 854 L 440 857 L 439 857 L 437 859 L 435 862 L 434 865 L 434 868 L 437 873 L 439 875 L 441 875 L 444 877 L 449 882 L 449 884 L 451 886 L 451 887 L 458 890 L 456 892 L 459 894 L 460 892 L 460 889 L 457 886 L 458 883 L 463 882 L 465 875 L 469 875 L 469 873 L 468 871 L 466 869 L 466 867 L 464 865 L 461 858 L 459 851 L 456 845 Z" class="cream"/><path d="M 363 828 L 365 826 L 369 827 L 378 836 L 377 839 L 375 838 L 373 836 L 368 830 Z" class="cream"/><path d="M 338 826 L 339 829 L 336 834 L 335 835 L 329 838 L 332 842 L 339 839 L 339 842 L 336 844 L 337 848 L 335 848 L 332 851 L 332 855 L 335 857 L 336 859 L 335 866 L 338 868 L 338 865 L 337 861 L 341 861 L 344 862 L 346 865 L 343 869 L 343 872 L 346 870 L 347 870 L 348 867 L 347 865 L 350 861 L 349 859 L 346 857 L 344 857 L 342 856 L 340 858 L 338 858 L 336 856 L 333 855 L 334 851 L 339 849 L 340 844 L 345 845 L 343 842 L 342 842 L 340 840 L 339 838 L 339 834 L 340 828 Z" class="cream"/><path d="M 471 826 L 474 825 L 475 827 L 475 829 L 478 834 L 477 838 L 475 836 L 473 832 L 473 829 Z" class="cream"/><path d="M 340 818 L 341 820 L 342 820 L 343 823 L 347 823 L 347 825 L 350 829 L 355 833 L 357 837 L 364 843 L 365 845 L 368 842 L 376 845 L 376 849 L 380 855 L 380 860 L 383 863 L 385 864 L 387 864 L 387 862 L 385 858 L 385 856 L 390 852 L 383 844 L 383 841 L 381 839 L 379 833 L 374 829 L 372 825 L 370 823 L 368 823 L 366 822 L 360 823 L 353 821 L 348 817 L 342 817 Z" class="cream"/><path d="M 389 802 L 393 803 L 393 804 L 394 806 L 391 808 L 388 805 Z" class="cream"/><path d="M 504 792 L 507 793 L 510 810 L 510 815 L 507 821 L 505 819 L 503 805 L 502 802 L 505 800 L 504 797 L 501 799 L 501 795 Z" class="cream"/><path d="M 298 788 L 300 790 L 300 791 L 303 795 L 306 797 L 312 800 L 316 799 L 314 798 L 310 798 L 306 795 L 302 791 L 301 791 Z" class="cream"/><path d="M 404 788 L 408 786 L 411 789 L 417 801 L 415 802 L 411 800 L 409 798 L 408 796 L 408 794 Z" class="cream"/><path d="M 501 781 L 503 783 L 505 788 L 503 790 L 502 793 L 500 791 L 499 783 Z" class="cream"/><path d="M 499 771 L 501 773 L 502 779 L 500 781 L 498 777 Z" class="cream"/><path d="M 477 768 L 478 774 L 480 780 L 480 786 L 482 790 L 482 795 L 485 803 L 485 808 L 486 809 L 485 814 L 484 812 L 483 811 L 481 805 L 476 782 L 475 776 L 475 770 Z" class="cream"/><path d="M 468 766 L 468 772 L 470 777 L 470 782 L 471 783 L 468 787 L 468 783 L 466 778 L 466 772 L 465 771 Z" class="cream"/><path d="M 522 757 L 524 759 L 525 774 L 523 776 L 521 774 L 520 772 L 519 769 L 519 762 L 520 759 Z" class="cream"/><path d="M 330 752 L 331 754 L 332 757 L 329 759 L 328 757 L 327 753 Z" class="cream"/><path d="M 345 745 L 349 749 L 350 751 L 350 754 L 352 757 L 352 763 L 354 765 L 354 769 L 350 770 L 348 768 L 346 769 L 346 772 L 347 773 L 347 776 L 345 779 L 347 784 L 347 788 L 354 800 L 352 799 L 349 796 L 346 792 L 345 788 L 341 785 L 340 782 L 340 778 L 343 775 L 343 772 L 340 765 L 342 763 L 347 764 L 348 762 L 348 755 L 345 753 L 345 751 L 343 749 L 343 747 Z" class="cream"/><path d="M 467 745 L 466 763 L 464 761 L 464 757 L 465 756 Z" class="cream"/><path d="M 491 738 L 493 740 L 493 765 L 491 767 L 493 770 L 493 776 L 491 781 L 491 785 L 492 786 L 492 791 L 494 795 L 494 799 L 495 800 L 494 803 L 492 801 L 491 799 L 489 792 L 489 787 L 487 785 L 488 770 L 486 768 L 488 766 L 488 752 L 489 745 Z" class="cream"/><path d="M 467 733 L 469 735 L 469 740 L 467 742 L 464 742 L 464 733 Z" class="cream"/><path d="M 374 699 L 377 699 L 378 705 L 377 710 L 378 711 L 377 717 L 377 727 L 373 723 L 372 721 L 372 714 L 369 711 L 369 707 L 371 705 L 372 705 L 373 701 Z" class="cream"/><path d="M 508 684 L 509 698 L 508 707 L 506 711 L 506 729 L 513 753 L 512 756 L 513 763 L 516 766 L 519 780 L 520 795 L 519 804 L 517 802 L 517 796 L 514 788 L 514 780 L 510 767 L 509 757 L 503 739 L 503 743 L 504 744 L 501 754 L 501 751 L 499 748 L 499 742 L 501 736 L 502 728 L 503 706 L 502 704 L 502 710 L 499 712 L 497 710 L 498 705 L 496 692 L 497 686 L 499 686 L 501 688 L 502 699 L 504 693 L 504 688 Z" class="cream"/><path d="M 340 681 L 341 684 L 342 685 L 342 687 L 341 688 L 341 691 L 339 695 L 337 697 L 337 701 L 339 699 L 339 697 L 343 696 L 343 698 L 345 701 L 345 705 L 343 707 L 343 710 L 341 712 L 337 711 L 335 710 L 333 708 L 333 696 L 335 691 L 338 691 L 337 688 L 338 683 Z" class="cream"/><path d="M 475 677 L 475 691 L 476 701 L 476 699 L 477 698 L 477 695 L 480 691 L 482 693 L 482 696 L 484 699 L 484 701 L 483 703 L 481 705 L 482 707 L 483 705 L 485 707 L 486 710 L 487 721 L 487 727 L 485 729 L 486 737 L 485 747 L 481 755 L 481 752 L 479 748 L 479 740 L 478 735 L 476 733 L 475 727 L 475 722 L 473 712 L 471 709 L 471 696 L 473 679 Z" class="cream"/><path d="M 391 667 L 392 690 L 389 699 L 388 688 Z" class="cream"/><path d="M 336 669 L 336 671 L 331 680 L 330 686 L 327 688 L 326 690 L 323 693 L 323 689 L 324 688 L 324 683 L 325 681 L 328 680 L 328 677 L 330 675 L 330 673 L 331 671 L 333 668 Z" class="cream"/><path d="M 562 651 L 565 654 L 565 657 L 567 659 L 566 662 L 563 662 L 560 664 L 561 654 Z" class="cream"/><path d="M 597 647 L 599 649 L 600 652 L 601 657 L 597 658 L 596 654 L 596 651 L 595 650 Z" class="cream"/><path d="M 472 648 L 472 651 L 470 656 L 470 663 L 468 670 L 469 676 L 465 685 L 465 687 L 467 690 L 465 697 L 464 706 L 462 705 L 461 712 L 463 717 L 463 728 L 460 725 L 459 723 L 459 721 L 457 718 L 452 734 L 452 726 L 454 719 L 453 712 L 455 707 L 457 709 L 462 703 L 462 701 L 459 700 L 461 672 L 464 668 L 463 667 L 466 662 L 468 652 Z" class="cream"/><path d="M 348 647 L 348 649 L 346 651 L 346 653 L 344 656 L 342 658 L 341 656 L 340 655 L 340 652 L 342 647 Z" class="cream"/><path d="M 316 629 L 315 632 L 314 633 L 312 645 L 313 643 L 314 642 L 316 634 Z" class="cream"/><path d="M 368 628 L 368 631 L 367 634 L 364 638 L 364 640 L 360 641 L 360 639 L 362 637 L 362 634 L 365 628 Z" class="cream"/><path d="M 412 621 L 414 623 L 413 626 L 411 626 L 408 628 L 408 625 L 409 623 Z" class="cream"/><path d="M 338 618 L 338 625 L 336 636 L 333 647 L 331 649 L 329 649 L 329 651 L 327 654 L 325 661 L 324 659 L 324 652 L 326 643 L 327 640 L 330 635 L 331 632 L 332 626 L 334 624 L 334 620 L 335 618 Z" class="cream"/><path d="M 579 601 L 581 601 L 584 604 L 584 609 L 581 608 L 581 606 L 579 604 Z" class="cream"/><path d="M 410 601 L 411 605 L 411 610 L 407 618 L 405 620 L 401 628 L 400 633 L 396 636 L 396 632 L 398 623 L 401 614 L 404 606 L 406 602 Z" class="cream"/><path d="M 345 597 L 347 614 L 349 622 L 347 624 L 345 622 L 344 620 L 343 613 L 343 600 L 344 599 Z" class="cream"/><path d="M 400 596 L 401 600 L 399 603 L 399 606 L 398 609 L 397 611 L 395 613 L 394 609 L 395 605 L 397 603 Z" class="cream"/><path d="M 500 587 L 501 596 L 500 602 L 497 611 L 496 622 L 494 627 L 494 631 L 493 633 L 495 631 L 496 628 L 498 628 L 501 632 L 501 635 L 499 637 L 497 645 L 497 653 L 495 657 L 495 667 L 497 669 L 498 680 L 493 682 L 492 677 L 490 675 L 489 682 L 491 685 L 490 693 L 486 694 L 486 688 L 484 683 L 484 669 L 486 644 L 489 632 L 489 626 L 494 612 L 498 595 L 498 589 Z" class="cream"/><path d="M 512 612 L 514 611 L 515 602 L 514 598 L 514 596 L 516 594 L 514 593 L 515 588 L 515 586 L 514 577 L 513 575 L 511 606 L 511 608 Z" class="cream"/><path d="M 492 570 L 492 577 L 493 581 L 493 583 L 491 600 L 489 603 L 490 609 L 489 617 L 488 622 L 486 625 L 483 627 L 482 622 L 482 602 L 485 585 L 488 582 L 488 576 L 490 574 L 490 572 Z" class="cream"/><path d="M 374 570 L 375 573 L 372 576 L 370 581 L 367 586 L 364 589 L 363 587 L 365 583 L 369 576 L 371 573 Z" class="cream"/><path d="M 440 568 L 442 570 L 442 572 L 441 576 L 442 582 L 441 585 L 439 587 L 438 596 L 435 594 L 435 590 L 435 592 L 434 593 L 434 598 L 433 599 L 432 601 L 430 598 L 432 590 L 434 586 L 437 586 L 437 580 L 435 578 L 435 576 L 437 570 Z" class="cream"/><path d="M 347 558 L 348 563 L 347 566 L 345 569 L 345 572 L 342 577 L 341 571 L 345 560 Z" class="cream"/><path d="M 353 530 L 351 533 L 347 541 L 346 546 L 344 549 L 344 553 L 346 550 L 350 541 L 352 536 L 353 533 Z" class="cream"/><path d="M 408 517 L 408 528 L 405 533 L 406 543 L 406 550 L 404 555 L 401 554 L 400 557 L 398 559 L 397 561 L 396 565 L 395 567 L 389 570 L 389 566 L 391 564 L 394 563 L 393 554 L 395 550 L 396 549 L 399 548 L 401 543 L 401 540 L 402 539 L 402 537 L 400 535 L 399 535 L 399 532 L 402 532 L 404 528 L 404 522 Z" class="cream"/><path d="M 381 517 L 382 520 L 380 525 L 379 527 L 374 533 L 371 533 L 371 530 L 372 517 L 376 516 L 376 519 L 375 520 L 376 523 L 378 521 L 378 520 Z" class="cream"/><path d="M 368 515 L 369 520 L 366 527 L 363 533 L 357 542 L 357 544 L 355 547 L 353 549 L 352 546 L 354 541 L 357 535 L 361 531 L 363 527 L 364 522 L 366 517 Z" class="cream"/><path d="M 494 512 L 494 518 L 493 530 L 492 534 L 489 542 L 489 546 L 486 553 L 483 565 L 483 577 L 477 585 L 477 574 L 478 560 L 481 556 L 488 538 L 490 526 L 490 516 Z" class="cream"/><path d="M 430 491 L 432 493 L 433 499 L 433 512 L 430 515 L 429 521 L 426 520 L 426 511 L 425 509 L 423 510 L 421 516 L 419 518 L 419 523 L 417 530 L 415 532 L 414 537 L 415 547 L 415 552 L 411 553 L 411 535 L 412 524 L 413 519 L 417 508 L 425 493 L 427 491 Z" class="cream"/><path d="M 490 487 L 490 498 L 489 505 L 487 507 L 486 515 L 485 531 L 484 536 L 482 539 L 483 542 L 481 546 L 481 550 L 478 549 L 479 546 L 479 533 L 481 525 L 481 517 L 483 509 L 485 506 L 486 498 L 486 492 Z" class="cream"/><path d="M 509 483 L 511 490 L 508 510 L 510 516 L 515 488 L 519 483 L 521 558 L 524 576 L 519 629 L 523 645 L 527 686 L 526 738 L 523 741 L 521 739 L 523 707 L 519 705 L 521 700 L 518 667 L 509 641 L 508 619 L 510 617 L 506 614 L 505 603 L 506 572 L 511 553 L 513 555 L 513 565 L 510 573 L 516 571 L 518 562 L 512 543 L 509 541 L 510 524 L 508 525 L 506 539 L 508 548 L 505 552 L 502 569 L 498 570 L 499 531 L 504 527 L 504 523 L 501 520 L 505 511 L 506 488 Z" class="cream"/><path d="M 449 482 L 450 500 L 450 506 L 448 511 L 448 516 L 444 520 L 443 507 L 441 500 L 441 502 L 439 504 L 436 508 L 436 502 L 438 491 L 439 489 L 441 486 L 444 483 Z" class="cream"/><path d="M 443 465 L 445 467 L 446 469 L 446 473 L 447 474 L 447 477 L 443 481 L 442 481 L 440 483 L 438 481 L 437 474 L 437 468 L 440 465 Z" class="cream"/><path d="M 415 465 L 418 468 L 419 473 L 419 478 L 418 486 L 411 495 L 406 497 L 404 483 L 405 474 L 408 474 L 410 472 L 411 469 Z" class="cream"/><path d="M 394 461 L 397 464 L 398 473 L 397 479 L 397 488 L 400 499 L 399 506 L 397 512 L 397 520 L 395 525 L 392 529 L 391 525 L 394 517 L 393 515 L 390 513 L 389 508 L 389 510 L 387 515 L 385 517 L 382 515 L 384 513 L 387 507 L 386 502 L 388 499 L 387 493 L 385 495 L 383 500 L 381 503 L 377 504 L 377 500 L 378 496 L 381 490 L 386 484 L 387 482 L 390 472 L 390 468 L 391 464 Z" class="cream"/><path d="M 465 456 L 467 458 L 467 470 L 466 475 L 465 478 L 463 480 L 462 475 L 463 474 L 462 469 Z" class="cream"/><path d="M 433 454 L 435 456 L 435 473 L 432 476 L 430 476 L 430 479 L 427 483 L 423 487 L 421 485 L 421 483 L 423 478 L 425 476 L 425 474 L 421 469 L 420 467 L 419 462 L 421 460 L 423 461 L 430 454 Z" class="cream"/><path d="M 510 451 L 507 468 L 507 453 Z" class="cream"/><path d="M 502 446 L 503 451 L 503 471 L 501 482 L 501 493 L 500 503 L 496 506 L 496 494 L 498 483 L 499 468 Z" class="cream"/><path d="M 465 443 L 468 443 L 469 447 L 471 444 L 473 446 L 474 448 L 474 452 L 475 455 L 476 457 L 472 461 L 468 457 L 467 451 L 466 454 L 463 454 L 463 447 Z" class="cream"/><path d="M 458 436 L 458 438 L 457 444 L 459 446 L 459 448 L 457 450 L 457 455 L 460 456 L 461 461 L 461 463 L 459 465 L 457 466 L 457 467 L 455 470 L 451 473 L 449 471 L 449 468 L 450 460 L 447 459 L 447 457 L 450 452 L 454 443 L 453 440 L 454 437 Z" class="cream"/><path d="M 419 428 L 421 430 L 419 443 L 417 446 L 417 449 L 415 451 L 410 462 L 409 467 L 408 469 L 406 471 L 402 471 L 401 466 L 401 452 L 400 442 L 404 431 L 405 429 L 409 428 L 409 430 L 407 434 L 407 436 L 408 439 L 411 443 L 414 443 L 415 437 L 415 430 L 417 428 Z" class="cream"/><path d="M 469 427 L 469 436 L 465 440 L 462 437 L 462 430 L 464 428 L 466 428 Z" class="cream"/><path d="M 477 424 L 478 428 L 478 431 L 477 435 L 475 437 L 473 435 L 473 425 Z" class="cream"/><path d="M 434 422 L 436 424 L 437 428 L 439 427 L 441 429 L 441 447 L 444 449 L 444 446 L 445 445 L 445 441 L 447 437 L 447 434 L 445 431 L 447 429 L 451 434 L 451 442 L 449 444 L 445 456 L 444 457 L 441 458 L 438 454 L 437 449 L 436 431 L 436 434 L 433 440 L 432 447 L 428 450 L 426 454 L 423 456 L 420 453 L 420 441 L 424 436 L 425 440 L 425 443 L 429 442 L 429 441 L 431 439 L 433 434 L 432 424 Z" class="cream"/><path d="M 396 416 L 395 422 L 392 426 L 391 430 L 391 434 L 390 437 L 388 439 L 386 444 L 389 450 L 391 444 L 391 437 L 393 433 L 394 423 L 396 421 Z" class="cream"/><path d="M 446 414 L 447 418 L 447 420 L 445 424 L 442 424 L 442 416 L 444 414 Z" class="cream"/><path d="M 502 407 L 501 423 L 499 429 L 498 438 L 498 447 L 494 454 L 494 437 L 496 430 L 496 423 L 498 412 Z" class="cream"/><path d="M 455 406 L 457 408 L 459 413 L 462 415 L 463 417 L 463 419 L 459 423 L 457 421 L 457 417 L 453 416 L 453 415 L 452 413 Z" class="cream"/><path d="M 439 404 L 439 406 L 438 414 L 437 416 L 434 416 L 433 414 L 433 412 L 435 409 L 435 406 L 436 404 Z" class="cream"/><path d="M 442 396 L 444 396 L 446 398 L 447 401 L 447 404 L 444 407 L 442 405 L 441 403 Z" class="cream"/><path d="M 465 393 L 467 395 L 467 401 L 464 403 L 462 401 L 461 399 L 461 396 L 462 394 Z" class="cream"/><path d="M 470 375 L 465 387 L 460 376 L 451 393 L 444 391 L 441 379 L 441 396 L 428 401 L 430 415 L 426 418 L 420 412 L 422 395 L 415 411 L 410 408 L 401 432 L 399 424 L 389 469 L 382 476 L 378 457 L 380 487 L 369 503 L 373 483 L 354 540 L 327 591 L 332 600 L 330 630 L 321 647 L 316 697 L 322 735 L 314 731 L 316 743 L 310 753 L 337 809 L 340 794 L 344 812 L 369 819 L 359 794 L 368 793 L 375 810 L 386 813 L 384 826 L 397 838 L 379 829 L 388 842 L 400 838 L 408 842 L 407 836 L 415 831 L 404 832 L 412 812 L 403 813 L 408 816 L 403 821 L 394 816 L 400 797 L 422 809 L 430 822 L 436 821 L 430 834 L 438 836 L 437 845 L 421 836 L 424 844 L 438 847 L 454 836 L 433 758 L 430 688 L 436 630 L 465 521 L 464 511 L 454 535 L 456 482 L 462 485 L 464 502 L 480 448 L 484 381 L 469 412 L 475 398 L 468 390 Z" class="cream"/><path d="M 816 370 L 819 368 L 823 371 L 821 373 L 816 372 Z" class="cream"/><path d="M 575 362 L 577 367 L 577 375 L 575 377 L 572 374 L 572 368 L 573 364 Z" class="cream"/><path d="M 586 355 L 588 359 L 589 360 L 590 360 L 591 364 L 590 366 L 585 366 L 586 363 L 584 361 L 584 357 Z" class="cream"/><path d="M 452 347 L 450 348 L 449 350 L 450 354 L 453 356 L 453 353 L 452 352 Z" class="cream"/><path d="M 590 344 L 591 348 L 589 348 L 590 350 L 585 350 L 585 348 L 586 346 Z" class="cream"/><path d="M 388 337 L 387 343 L 388 344 L 387 354 L 388 360 L 390 353 L 389 339 Z" class="cream"/><path d="M 733 331 L 734 342 L 731 355 L 731 345 L 729 342 L 729 336 Z" class="cream"/><path d="M 178 327 L 184 330 L 185 334 L 188 332 L 190 332 L 195 334 L 199 334 L 203 336 L 213 337 L 215 339 L 215 342 L 224 342 L 225 346 L 229 347 L 226 345 L 230 344 L 236 352 L 238 352 L 240 354 L 243 354 L 247 357 L 253 359 L 257 359 L 258 360 L 274 359 L 276 357 L 279 359 L 287 359 L 290 358 L 296 359 L 298 361 L 295 363 L 295 365 L 313 365 L 312 363 L 310 362 L 302 361 L 293 355 L 289 351 L 288 347 L 286 347 L 283 345 L 280 345 L 275 347 L 270 347 L 267 349 L 261 349 L 257 348 L 241 339 L 226 339 L 220 337 L 213 330 L 204 331 L 187 331 L 180 327 Z" class="cream"/><path d="M 308 326 L 306 327 L 306 331 L 308 341 L 308 356 L 308 338 L 309 333 Z" class="cream"/><path d="M 349 319 L 348 323 L 347 324 L 347 336 L 345 340 L 344 345 L 345 359 L 345 354 L 346 353 L 346 347 L 347 342 L 348 340 L 351 340 L 352 345 L 353 359 L 356 358 L 356 352 L 355 347 L 350 331 L 349 326 Z" class="cream"/><path d="M 370 318 L 370 343 L 369 344 L 368 357 L 365 354 L 366 341 L 364 328 L 364 331 L 363 332 L 364 358 L 372 357 L 372 334 L 371 325 L 370 324 Z" class="cream"/><path d="M 318 317 L 316 320 L 318 326 L 318 328 L 317 330 L 319 341 L 319 344 L 318 358 L 320 358 L 320 339 L 319 338 Z" class="cream"/><path d="M 323 315 L 322 324 L 323 330 L 324 331 L 325 335 L 324 330 L 324 327 L 325 326 L 325 320 Z" class="cream"/><path d="M 592 314 L 592 316 L 593 321 L 593 327 L 588 332 L 588 338 L 587 342 L 583 345 L 580 341 L 582 338 L 582 331 L 583 329 L 585 327 L 587 327 L 586 322 L 588 321 L 589 314 Z" class="cream"/><path d="M 335 313 L 334 316 L 335 317 L 336 353 L 337 344 L 337 320 Z" class="cream"/><path d="M 478 342 L 480 341 L 480 338 L 479 323 L 478 322 L 478 311 L 477 327 L 478 328 Z" class="cream"/><path d="M 342 308 L 339 310 L 341 314 L 342 322 L 341 326 L 343 331 Z" class="cream"/><path d="M 837 302 L 839 302 L 842 304 L 844 307 L 842 309 L 838 307 L 838 306 L 836 304 Z" class="cream"/><path d="M 357 301 L 356 308 L 357 326 L 358 327 L 359 329 L 360 327 L 360 313 L 359 305 Z" class="cream"/><path d="M 370 294 L 367 295 L 367 300 L 369 315 L 370 299 Z" class="cream"/><path d="M 823 290 L 828 295 L 830 295 L 837 302 L 832 304 L 832 309 L 828 310 L 827 305 L 828 302 L 827 298 L 826 296 L 824 296 L 822 295 L 821 292 Z" class="cream"/><path d="M 374 291 L 373 311 L 374 312 L 375 315 Z" class="cream"/><path d="M 397 289 L 398 292 L 395 348 L 394 313 Z" class="cream"/><path d="M 380 289 L 378 291 L 379 306 L 379 318 L 378 320 L 376 321 L 375 324 L 378 329 L 378 331 L 379 328 L 380 327 L 381 322 L 382 296 Z" class="cream"/><path d="M 465 287 L 465 296 L 466 297 L 465 304 L 465 330 L 468 351 L 473 347 L 474 347 L 475 339 L 473 326 L 472 311 L 472 295 L 472 300 L 471 301 L 471 325 L 472 338 L 470 346 L 467 325 L 468 296 L 467 295 L 467 291 L 469 290 L 468 288 Z" class="cream"/><path d="M 454 287 L 455 329 L 454 334 L 455 346 L 456 347 L 456 355 L 457 336 L 456 335 Z" class="cream"/><path d="M 391 287 L 389 289 L 391 291 L 390 322 L 392 329 L 394 353 L 394 357 L 393 358 L 393 361 L 395 362 L 397 361 L 403 363 L 405 362 L 404 359 L 401 358 L 400 343 L 399 299 L 400 295 L 395 288 Z" class="cream"/><path d="M 652 286 L 652 288 L 648 292 L 642 291 L 644 289 L 649 285 Z" class="cream"/><path d="M 462 286 L 459 287 L 459 296 L 461 304 L 461 325 L 460 333 L 460 337 L 463 354 L 463 340 L 461 326 L 461 294 Z" class="cream"/><path d="M 410 286 L 406 288 L 404 286 L 402 287 L 403 343 L 404 346 L 406 323 L 405 314 L 407 310 L 409 317 L 409 340 L 407 363 L 411 362 L 410 322 L 411 311 L 410 310 L 411 290 L 410 289 Z" class="cream"/><path d="M 449 285 L 449 292 L 447 304 L 447 326 L 449 338 L 450 339 L 451 342 L 451 327 L 450 326 Z" class="cream"/><path d="M 442 284 L 443 293 L 439 312 L 439 290 L 436 283 L 434 285 L 430 282 L 423 282 L 426 291 L 426 310 L 423 320 L 421 318 L 419 284 L 413 284 L 414 362 L 417 363 L 416 322 L 419 288 L 421 363 L 428 361 L 427 286 L 431 285 L 431 323 L 433 328 L 435 293 L 437 295 L 436 360 L 439 359 L 439 335 L 441 333 L 443 354 L 446 356 L 443 330 Z" class="cream"/><path d="M 778 279 L 780 281 L 780 283 L 782 280 L 784 282 L 785 285 L 784 288 L 781 288 L 779 287 L 776 284 L 776 281 Z" class="cream"/><path d="M 666 280 L 668 279 L 669 278 L 673 277 L 692 275 L 705 275 L 707 277 L 712 278 L 718 278 L 722 282 L 718 282 L 704 280 L 687 280 L 671 282 L 668 282 Z" class="cream"/><path d="M 742 265 L 745 266 L 745 269 L 747 271 L 748 268 L 751 266 L 753 268 L 753 270 L 752 272 L 750 274 L 747 274 L 745 273 L 743 271 L 743 269 L 741 267 Z" class="cream"/><path d="M 747 255 L 747 259 L 746 261 L 744 263 L 739 263 L 740 261 L 742 259 L 744 259 L 744 256 Z" class="cream"/><path d="M 729 251 L 732 249 L 733 251 L 736 252 L 735 256 L 733 256 L 731 255 L 730 254 L 730 253 Z" class="cream"/><path d="M 703 249 L 705 247 L 708 247 L 710 248 L 711 249 L 711 253 L 709 253 L 706 255 L 703 252 Z" class="cream"/><path d="M 690 250 L 691 247 L 699 248 L 701 250 L 698 252 Z" class="cream"/><path d="M 321 245 L 320 248 L 318 249 L 318 254 L 317 257 L 317 259 L 319 256 L 320 252 L 321 249 Z" class="cream"/><path d="M 658 235 L 661 234 L 662 234 L 663 235 L 663 236 L 666 237 L 670 239 L 674 238 L 676 239 L 679 242 L 673 242 L 673 244 L 663 246 L 661 244 L 661 242 L 658 239 L 660 236 Z" class="cream"/><path d="M 661 223 L 664 226 L 663 232 L 661 233 L 659 231 L 658 229 L 658 225 Z" class="cream"/><path d="M 728 215 L 730 213 L 734 214 L 734 216 L 737 218 L 738 221 L 741 218 L 741 221 L 745 221 L 744 226 L 746 225 L 747 218 L 757 227 L 754 233 L 758 233 L 759 230 L 762 229 L 765 233 L 766 229 L 768 229 L 770 231 L 776 232 L 788 238 L 793 243 L 788 246 L 788 248 L 798 247 L 799 253 L 801 255 L 804 266 L 803 269 L 797 270 L 810 276 L 817 285 L 816 289 L 809 286 L 805 282 L 801 283 L 800 281 L 797 282 L 795 280 L 797 276 L 791 272 L 787 267 L 788 264 L 784 260 L 785 262 L 783 263 L 783 265 L 787 270 L 786 272 L 794 276 L 796 279 L 792 282 L 798 283 L 801 288 L 804 290 L 803 293 L 800 293 L 798 291 L 795 291 L 794 289 L 791 290 L 789 289 L 786 283 L 787 278 L 779 271 L 774 272 L 772 270 L 773 263 L 772 261 L 768 258 L 770 264 L 770 268 L 768 270 L 761 263 L 762 258 L 759 256 L 757 258 L 756 254 L 757 250 L 737 238 L 742 235 L 739 232 L 739 227 L 733 225 L 731 228 L 729 225 L 730 221 L 728 219 Z" class="cream"/><path d="M 271 214 L 266 219 L 260 223 L 255 228 L 253 231 L 252 234 L 249 237 L 247 240 L 246 242 L 246 245 L 248 243 L 250 238 L 252 235 L 257 230 L 271 217 Z" class="cream"/><path d="M 596 204 L 594 206 L 589 207 L 586 204 L 590 203 L 593 201 Z" class="cream"/><path d="M 671 194 L 673 199 L 669 201 L 672 203 L 673 207 L 675 204 L 678 206 L 677 210 L 680 209 L 682 212 L 680 213 L 672 213 L 675 215 L 673 217 L 670 214 L 668 214 L 666 213 L 664 211 L 667 208 L 664 207 L 662 204 L 665 202 L 665 196 L 669 197 Z" class="cream"/><path d="M 308 195 L 304 197 L 293 204 L 287 205 L 282 205 L 279 206 L 277 207 L 275 209 L 274 211 L 277 212 L 280 210 L 287 209 L 290 207 L 296 206 L 299 205 L 301 204 L 303 202 L 305 198 Z" class="cream"/><path d="M 636 193 L 636 195 L 637 198 L 643 201 L 645 203 L 645 205 L 647 201 L 645 200 L 642 199 L 640 198 Z" class="cream"/><path d="M 679 189 L 683 194 L 680 196 L 681 199 L 678 202 L 677 195 L 678 191 Z" class="cream"/><path d="M 702 187 L 706 188 L 709 190 L 710 195 L 706 192 L 704 192 L 702 191 Z" class="cream"/><path d="M 633 184 L 632 188 L 626 186 L 631 182 Z" class="cream"/><path d="M 644 185 L 646 183 L 648 183 L 650 181 L 655 183 L 657 185 L 657 186 L 659 188 L 656 189 L 655 193 L 652 192 L 652 190 L 650 187 L 648 187 L 647 189 L 644 188 Z" class="cream"/><path d="M 688 185 L 688 189 L 686 187 L 681 187 L 673 183 L 664 184 L 666 186 L 663 197 L 660 196 L 660 203 L 657 208 L 663 212 L 656 222 L 652 216 L 653 212 L 650 211 L 651 206 L 648 206 L 645 212 L 647 213 L 651 212 L 651 215 L 648 218 L 653 221 L 654 223 L 653 226 L 657 227 L 655 231 L 649 228 L 648 221 L 645 222 L 648 225 L 645 227 L 638 228 L 635 226 L 631 228 L 626 220 L 625 214 L 623 214 L 624 217 L 619 231 L 614 230 L 612 228 L 612 225 L 614 226 L 618 225 L 617 216 L 608 214 L 611 208 L 614 208 L 616 210 L 616 207 L 613 206 L 612 201 L 609 203 L 607 211 L 605 209 L 605 206 L 601 205 L 599 208 L 596 207 L 596 204 L 598 202 L 601 202 L 603 199 L 606 201 L 609 199 L 608 188 L 610 187 L 613 190 L 613 194 L 613 191 L 615 189 L 618 192 L 621 191 L 625 192 L 626 195 L 632 191 L 630 194 L 631 196 L 634 188 L 636 191 L 640 190 L 643 196 L 646 195 L 647 197 L 652 198 L 656 194 L 660 194 L 659 190 L 662 188 L 660 179 L 659 182 L 654 179 L 657 175 L 664 176 L 666 178 L 672 178 L 681 184 Z" class="cream"/><path d="M 553 176 L 556 174 L 558 175 L 560 177 L 561 179 L 566 177 L 565 182 L 559 182 L 556 185 L 553 182 Z" class="cream"/><path d="M 343 164 L 341 164 L 338 167 L 336 167 L 333 169 L 327 176 L 327 180 L 325 185 L 307 201 L 308 204 L 310 205 L 309 214 L 310 221 L 290 246 L 289 250 L 294 244 L 302 238 L 306 233 L 310 234 L 320 242 L 320 239 L 317 238 L 314 235 L 312 230 L 312 226 L 316 221 L 315 209 L 317 200 L 320 195 L 328 188 L 334 188 L 338 190 L 341 188 L 350 188 L 357 199 L 364 201 L 362 195 L 355 189 L 353 185 L 346 184 L 345 185 L 339 185 L 331 180 L 332 175 L 343 166 Z" class="cream"/><path d="M 312 163 L 310 162 L 304 163 L 304 165 L 302 167 L 300 167 L 298 169 L 284 169 L 283 170 L 280 170 L 276 173 L 274 173 L 272 174 L 269 172 L 263 173 L 262 172 L 257 173 L 259 175 L 264 177 L 274 177 L 277 176 L 280 174 L 283 173 L 288 173 L 295 170 L 302 170 L 305 168 L 308 167 L 308 166 L 310 164 Z" class="cream"/><path d="M 358 154 L 361 154 L 364 151 L 369 150 L 368 147 L 362 148 Z" class="cream"/><path d="M 353 137 L 353 135 L 351 133 L 348 133 L 342 136 L 346 136 L 347 137 Z" class="cream"/><path d="M 634 129 L 617 132 L 615 154 L 524 159 L 517 207 L 513 163 L 463 197 L 407 212 L 315 290 L 295 328 L 382 281 L 457 281 L 491 307 L 495 412 L 460 635 L 472 585 L 454 671 L 455 605 L 442 661 L 439 751 L 451 816 L 485 888 L 521 890 L 531 805 L 531 907 L 582 905 L 605 893 L 598 880 L 610 887 L 605 899 L 620 895 L 607 877 L 640 844 L 661 776 L 664 706 L 628 573 L 624 581 L 612 492 L 616 311 L 625 306 L 623 340 L 671 370 L 676 355 L 687 378 L 691 362 L 693 378 L 705 377 L 694 375 L 701 294 L 706 375 L 715 327 L 723 380 L 733 367 L 732 378 L 751 377 L 754 331 L 757 377 L 779 370 L 787 325 L 785 368 L 802 348 L 808 367 L 810 343 L 812 375 L 869 354 L 860 307 L 796 231 L 697 165 L 640 155 L 628 142 Z" class="cream"/><path d="M 382 151 L 396 152 L 412 138 L 426 140 L 440 146 L 442 149 L 444 160 L 443 164 L 436 166 L 437 168 L 439 165 L 449 164 L 452 167 L 464 173 L 469 179 L 470 177 L 469 174 L 467 175 L 464 170 L 451 159 L 450 144 L 454 141 L 463 138 L 471 132 L 476 132 L 478 134 L 487 136 L 494 135 L 496 133 L 515 142 L 520 148 L 523 145 L 524 151 L 528 149 L 533 150 L 530 145 L 523 144 L 510 134 L 507 134 L 502 129 L 503 124 L 499 125 L 494 130 L 463 131 L 447 141 L 444 141 L 413 132 L 410 128 L 412 122 L 409 118 L 407 118 L 409 121 L 410 128 L 408 132 L 408 137 L 405 141 L 396 147 L 391 149 L 389 147 Z" class="cream"/><path d="M 599 107 L 599 109 L 600 111 L 602 112 L 605 114 L 607 115 L 607 113 L 604 111 L 603 109 L 602 108 L 601 108 Z" class="cream"/><path d="M 376 108 L 376 111 L 377 113 L 379 115 L 383 117 L 390 118 L 393 120 L 396 120 L 398 121 L 402 124 L 404 127 L 402 124 L 402 120 L 401 118 L 399 118 L 396 115 L 393 115 L 388 112 L 385 112 L 383 111 L 379 107 Z" class="cream"/></g><g id="accent"><path d="M 482 936 L 485 941 L 490 941 L 490 939 L 487 937 L 486 938 L 484 936 Z" class="orange"/><path d="M 497 930 L 497 932 L 498 935 L 500 938 L 502 938 L 500 935 L 501 930 Z" class="orange"/><path d="M 471 908 L 469 910 L 470 910 L 472 912 L 472 914 L 470 916 L 468 917 L 471 917 L 474 920 L 473 918 L 473 914 L 475 912 L 476 908 Z" class="orange"/><path d="M 437 900 L 435 901 L 437 901 L 439 903 L 439 906 L 437 909 L 436 915 L 438 914 L 438 912 L 439 910 L 440 909 L 444 908 L 444 905 L 440 905 L 441 902 Z" class="orange"/><path d="M 498 899 L 497 903 L 494 906 L 498 906 L 500 905 L 501 903 Z" class="orange"/><path d="M 390 892 L 385 896 L 381 896 L 379 897 L 375 901 L 375 903 L 371 906 L 371 908 L 373 908 L 376 905 L 377 902 L 379 900 L 383 900 L 385 899 L 388 897 Z" class="orange"/><path d="M 489 884 L 490 886 L 491 887 L 492 887 L 494 889 L 498 888 L 497 884 L 494 884 L 493 885 Z" class="orange"/><path d="M 438 891 L 438 889 L 437 886 L 435 884 L 431 889 L 428 890 L 432 890 L 433 891 Z" class="orange"/><path d="M 419 880 L 417 882 L 415 882 L 415 887 L 417 889 L 417 894 L 419 893 L 419 892 L 420 890 L 418 884 Z" class="orange"/><path d="M 421 879 L 423 881 L 428 880 L 430 880 L 431 881 L 433 880 L 429 877 L 427 876 L 425 876 Z" class="orange"/><path d="M 433 867 L 431 870 L 435 874 L 435 875 L 440 880 L 439 878 L 439 877 L 436 874 L 436 872 L 434 870 Z" class="orange"/><path d="M 613 865 L 612 868 L 611 869 L 611 871 L 614 870 L 616 872 L 619 872 L 620 870 L 620 868 L 616 868 Z" class="orange"/><path d="M 344 863 L 341 862 L 337 863 L 339 865 L 337 869 L 334 868 L 332 872 L 334 872 L 336 870 L 342 871 L 342 869 L 343 867 Z" class="orange"/><path d="M 496 859 L 496 861 L 490 864 L 492 858 L 488 860 L 490 865 L 491 865 L 492 866 L 493 868 L 491 870 L 487 869 L 485 870 L 485 872 L 484 873 L 484 876 L 487 877 L 487 879 L 496 879 L 498 878 L 498 874 L 495 874 L 490 875 L 488 873 L 489 870 L 492 869 L 495 869 L 495 867 L 499 862 Z" class="orange"/><path d="M 643 851 L 640 852 L 638 854 L 635 854 L 633 856 L 627 865 L 627 867 L 631 862 L 636 863 L 637 861 L 639 859 L 640 859 L 641 856 L 643 853 Z" class="orange"/><path d="M 353 850 L 353 852 L 355 854 L 355 856 L 359 860 L 361 858 L 363 857 L 359 857 L 358 856 L 357 854 L 357 853 L 356 851 Z" class="orange"/><path d="M 417 846 L 415 848 L 415 850 L 422 857 L 421 859 L 427 864 L 427 858 L 426 856 L 424 856 L 422 854 L 422 852 L 420 850 L 419 846 Z" class="orange"/><path d="M 457 845 L 458 848 L 459 849 L 459 850 L 465 865 L 467 867 L 467 869 L 470 873 L 471 877 L 479 885 L 479 886 L 486 893 L 487 893 L 491 897 L 493 895 L 494 895 L 496 893 L 491 892 L 485 889 L 480 884 L 474 875 L 473 871 L 470 868 L 469 861 L 466 858 L 464 853 L 463 846 L 460 845 Z" class="orange"/><path d="M 407 843 L 400 839 L 399 843 L 397 843 L 393 845 L 391 843 L 388 843 L 386 841 L 384 841 L 384 844 L 386 847 L 390 847 L 396 853 L 395 856 L 389 855 L 386 856 L 386 858 L 388 862 L 387 865 L 382 864 L 380 868 L 380 867 L 378 865 L 374 865 L 374 867 L 372 870 L 375 871 L 375 872 L 378 873 L 380 872 L 384 877 L 387 877 L 390 874 L 392 876 L 394 876 L 396 875 L 400 878 L 404 877 L 402 875 L 399 874 L 396 874 L 394 872 L 393 867 L 394 862 L 398 862 L 401 865 L 397 858 L 396 852 L 398 850 L 407 849 L 408 847 L 408 845 Z" class="orange"/><path d="M 528 803 L 527 809 L 530 828 L 531 842 L 529 874 L 527 879 L 525 879 L 522 877 L 518 877 L 518 879 L 520 881 L 522 887 L 521 891 L 519 892 L 516 897 L 516 900 L 519 902 L 521 900 L 523 900 L 525 897 L 527 899 L 527 901 L 529 903 L 533 897 L 535 892 L 533 890 L 533 887 L 535 880 L 537 848 L 536 847 L 535 842 L 532 812 L 530 805 Z" class="orange"/><path d="M 400 798 L 398 800 L 398 807 L 395 812 L 395 816 L 397 818 L 399 818 L 401 820 L 406 820 L 407 818 L 406 815 L 404 815 L 402 813 L 406 810 L 410 810 L 412 811 L 413 815 L 410 816 L 411 821 L 409 823 L 408 825 L 408 827 L 405 829 L 406 833 L 412 829 L 416 830 L 420 830 L 423 828 L 425 830 L 425 832 L 424 834 L 425 837 L 431 838 L 431 840 L 429 843 L 432 843 L 436 845 L 435 843 L 437 840 L 437 838 L 435 837 L 432 837 L 429 834 L 430 824 L 432 824 L 434 823 L 434 820 L 430 823 L 427 820 L 428 818 L 425 817 L 422 814 L 423 811 L 417 810 L 410 804 L 408 801 L 408 799 Z" class="orange"/><path d="M 340 795 L 337 797 L 338 807 L 337 810 L 334 811 L 332 810 L 332 812 L 338 819 L 337 822 L 338 825 L 341 828 L 342 832 L 340 834 L 340 838 L 345 846 L 341 847 L 338 851 L 334 852 L 333 856 L 332 856 L 332 859 L 335 859 L 333 856 L 336 855 L 338 857 L 340 857 L 342 855 L 344 856 L 345 851 L 348 849 L 349 847 L 348 842 L 352 841 L 356 845 L 361 844 L 364 846 L 368 852 L 365 856 L 367 857 L 367 860 L 369 862 L 370 858 L 373 855 L 375 855 L 379 858 L 379 855 L 374 848 L 374 846 L 371 846 L 367 843 L 365 846 L 363 844 L 363 843 L 356 837 L 354 833 L 349 829 L 349 828 L 346 825 L 346 823 L 341 821 L 340 817 L 345 815 L 343 812 L 344 806 Z" class="orange"/><path d="M 504 793 L 502 795 L 503 799 L 506 797 L 505 801 L 504 801 L 503 804 L 505 805 L 505 812 L 508 820 L 508 816 L 509 815 L 509 810 L 507 798 L 506 797 L 506 793 Z" class="orange"/><path d="M 360 792 L 360 794 L 362 796 L 362 798 L 363 800 L 366 803 L 366 810 L 369 815 L 371 817 L 372 817 L 374 819 L 374 820 L 377 823 L 378 827 L 383 827 L 385 828 L 382 825 L 382 823 L 384 820 L 381 819 L 379 817 L 380 814 L 382 817 L 385 817 L 384 815 L 385 813 L 377 812 L 375 811 L 374 809 L 376 808 L 374 805 L 373 805 L 372 800 L 369 797 L 368 794 L 364 794 Z" class="orange"/><path d="M 405 788 L 406 790 L 409 794 L 409 796 L 410 798 L 411 799 L 414 800 L 416 801 L 414 799 L 412 795 L 410 792 L 410 789 L 408 787 Z" class="orange"/><path d="M 477 769 L 476 776 L 477 782 L 482 805 L 484 811 L 485 812 L 486 814 L 485 809 L 484 808 L 484 803 L 481 795 L 481 790 L 479 786 L 479 780 L 477 774 Z" class="orange"/><path d="M 522 758 L 521 762 L 520 764 L 520 768 L 521 772 L 522 773 L 523 775 L 523 772 L 522 768 L 523 760 Z" class="orange"/><path d="M 491 739 L 491 744 L 490 745 L 489 752 L 489 766 L 487 769 L 489 772 L 488 785 L 490 787 L 490 792 L 492 796 L 492 799 L 493 800 L 494 802 L 494 800 L 493 799 L 493 795 L 491 791 L 491 786 L 490 785 L 490 781 L 492 776 L 492 770 L 490 767 L 492 764 L 491 749 L 492 748 Z" class="orange"/><path d="M 467 730 L 466 732 L 465 733 L 466 742 L 469 739 L 468 737 L 468 735 Z" class="orange"/><path d="M 662 710 L 662 714 L 663 715 L 663 723 L 665 729 L 665 737 L 661 746 L 663 767 L 662 776 L 660 786 L 658 790 L 658 796 L 656 802 L 656 807 L 659 806 L 659 803 L 660 802 L 660 789 L 661 783 L 664 777 L 665 771 L 665 765 L 667 760 L 668 742 L 664 714 L 663 713 Z" class="orange"/><path d="M 507 684 L 505 688 L 504 698 L 502 700 L 500 698 L 499 687 L 497 687 L 498 704 L 499 706 L 501 707 L 502 704 L 504 706 L 503 728 L 502 736 L 500 742 L 500 748 L 503 754 L 502 743 L 505 739 L 506 746 L 510 757 L 511 767 L 515 780 L 515 788 L 518 796 L 519 803 L 517 774 L 515 766 L 512 763 L 512 753 L 505 729 L 505 711 L 507 707 L 508 697 Z" class="orange"/><path d="M 340 682 L 338 692 L 335 692 L 335 695 L 334 696 L 336 709 L 335 701 L 335 699 L 336 697 L 339 693 L 340 691 L 340 688 L 341 687 L 341 685 L 340 684 Z" class="orange"/><path d="M 475 678 L 474 685 L 473 686 L 472 696 L 472 709 L 474 712 L 476 722 L 476 727 L 477 733 L 479 735 L 480 740 L 480 748 L 483 755 L 483 748 L 484 747 L 485 736 L 484 729 L 486 727 L 485 710 L 484 709 L 483 706 L 480 707 L 480 705 L 483 701 L 483 699 L 479 692 L 479 694 L 478 695 L 478 698 L 474 701 L 474 691 L 475 690 Z" class="orange"/><path d="M 336 666 L 334 668 L 332 671 L 331 673 L 331 675 L 329 677 L 328 681 L 326 681 L 324 685 L 325 688 L 325 693 L 325 690 L 326 688 L 327 687 L 328 687 L 330 680 L 335 671 L 335 669 L 336 668 Z" class="orange"/><path d="M 561 652 L 562 664 L 563 661 L 566 661 L 566 659 L 564 657 L 564 654 Z" class="orange"/><path d="M 471 648 L 469 652 L 467 662 L 464 667 L 465 668 L 462 672 L 460 700 L 463 701 L 459 703 L 459 708 L 457 710 L 454 708 L 454 714 L 455 719 L 453 726 L 454 734 L 454 725 L 455 719 L 457 717 L 459 719 L 460 721 L 460 723 L 463 727 L 462 725 L 462 717 L 460 712 L 460 706 L 462 704 L 464 705 L 464 697 L 466 689 L 464 687 L 464 685 L 468 676 L 467 669 L 469 663 L 469 656 L 471 651 Z" class="orange"/><path d="M 347 647 L 345 648 L 342 648 L 342 651 L 341 652 L 342 657 L 343 655 L 345 653 L 345 651 L 347 649 Z" class="orange"/><path d="M 448 631 L 450 633 L 449 636 L 448 638 L 445 638 L 446 633 Z" class="orange"/><path d="M 367 628 L 365 630 L 363 634 L 363 637 L 361 639 L 361 641 L 363 640 L 363 638 L 364 636 L 366 634 L 367 631 Z" class="orange"/><path d="M 337 618 L 335 620 L 335 624 L 333 626 L 332 632 L 331 635 L 328 640 L 326 647 L 325 652 L 325 659 L 327 661 L 326 653 L 328 651 L 329 648 L 332 647 L 332 644 L 334 640 L 336 631 L 337 625 Z" class="orange"/><path d="M 632 602 L 632 607 L 634 615 L 640 628 L 650 657 L 654 677 L 654 684 L 656 687 L 658 695 L 658 699 L 659 703 L 661 706 L 657 688 L 657 680 L 655 674 L 655 668 L 645 628 L 641 617 L 637 609 L 634 606 Z" class="orange"/><path d="M 409 601 L 407 602 L 405 606 L 402 614 L 399 623 L 397 632 L 398 636 L 398 634 L 400 628 L 404 620 L 406 618 L 410 610 L 410 605 L 409 604 Z" class="orange"/><path d="M 345 598 L 344 600 L 344 613 L 345 620 L 346 621 L 347 623 L 348 621 L 346 614 L 346 603 Z" class="orange"/><path d="M 500 588 L 495 612 L 490 626 L 490 632 L 488 638 L 486 652 L 485 683 L 487 688 L 487 694 L 489 693 L 490 685 L 488 682 L 488 676 L 492 675 L 492 669 L 494 669 L 496 672 L 496 669 L 494 667 L 494 664 L 490 663 L 492 661 L 493 661 L 496 653 L 496 645 L 498 637 L 500 635 L 500 632 L 499 630 L 496 629 L 496 631 L 493 634 L 492 632 L 495 622 L 496 611 L 499 602 L 500 596 Z" class="orange"/><path d="M 514 575 L 515 577 L 516 586 L 516 595 L 515 598 L 516 599 L 516 602 L 515 611 L 511 612 L 511 609 L 510 608 L 510 606 Z" class="orange"/><path d="M 492 571 L 491 574 L 489 576 L 489 582 L 486 585 L 483 602 L 483 622 L 484 623 L 485 627 L 485 625 L 487 622 L 488 617 L 489 609 L 488 602 L 490 600 L 492 583 L 492 581 L 491 580 L 491 577 Z" class="orange"/><path d="M 625 559 L 624 561 L 624 572 L 625 581 L 626 583 L 629 584 L 627 576 L 627 566 L 626 565 Z" class="orange"/><path d="M 347 559 L 345 563 L 345 565 L 342 571 L 342 576 L 344 572 L 344 569 L 346 566 L 347 563 Z" class="orange"/><path d="M 405 544 L 403 544 L 402 548 L 400 548 L 400 553 L 404 553 L 403 549 L 405 546 Z" class="orange"/><path d="M 493 512 L 489 538 L 482 556 L 479 560 L 478 574 L 479 585 L 479 581 L 480 579 L 482 577 L 482 565 L 485 553 L 488 546 L 488 542 L 491 534 L 492 530 L 492 519 L 493 518 Z" class="orange"/><path d="M 425 503 L 421 506 L 421 507 L 417 511 L 414 519 L 413 524 L 412 535 L 413 546 L 413 537 L 414 532 L 416 530 L 416 524 L 418 522 L 418 518 L 420 516 L 422 510 L 424 508 L 426 508 L 426 505 Z" class="orange"/><path d="M 432 500 L 431 502 L 430 508 L 429 512 L 427 513 L 427 516 L 428 517 L 428 520 L 428 516 L 432 512 Z" class="orange"/><path d="M 365 498 L 359 501 L 348 525 L 327 582 L 317 623 L 317 634 L 311 652 L 308 675 L 308 717 L 311 732 L 310 740 L 312 750 L 313 746 L 315 746 L 313 734 L 317 731 L 320 736 L 321 724 L 318 700 L 315 697 L 315 679 L 317 677 L 319 687 L 321 643 L 325 641 L 326 632 L 324 628 L 326 625 L 326 619 L 328 618 L 330 598 L 326 598 L 325 596 L 326 591 L 343 556 L 343 549 L 346 541 L 359 520 L 364 507 L 366 506 Z" class="orange"/><path d="M 489 487 L 488 491 L 487 492 L 487 498 L 486 506 L 484 509 L 482 517 L 482 525 L 480 533 L 480 546 L 478 551 L 480 550 L 480 546 L 482 542 L 481 539 L 483 536 L 484 531 L 485 515 L 486 507 L 488 505 L 489 498 Z" class="orange"/><path d="M 392 486 L 389 488 L 388 491 L 388 493 L 389 499 L 387 502 L 388 507 L 391 508 L 392 514 L 395 516 L 395 519 L 396 512 L 394 513 L 392 511 L 392 504 L 394 501 L 393 499 L 391 496 L 393 489 Z" class="orange"/><path d="M 518 483 L 513 513 L 510 517 L 507 509 L 509 484 L 507 488 L 505 513 L 502 516 L 502 520 L 505 523 L 500 531 L 499 570 L 501 569 L 504 552 L 507 548 L 507 541 L 505 539 L 507 525 L 511 524 L 511 542 L 514 544 L 514 550 L 517 553 L 519 562 L 518 570 L 511 574 L 509 572 L 512 565 L 510 554 L 507 572 L 506 604 L 507 614 L 511 617 L 509 625 L 510 641 L 519 667 L 522 700 L 520 705 L 524 707 L 522 737 L 524 740 L 526 686 L 522 645 L 518 629 L 523 576 L 520 558 Z" class="orange"/><path d="M 417 469 L 416 471 L 415 472 L 414 478 L 414 480 L 415 481 L 414 485 L 416 484 L 417 482 L 418 478 L 418 473 L 417 472 Z" class="orange"/><path d="M 434 459 L 432 461 L 432 464 L 429 467 L 427 470 L 427 472 L 431 474 L 431 472 L 434 469 Z" class="orange"/><path d="M 464 457 L 463 470 L 464 474 L 463 475 L 463 479 L 464 476 L 465 475 L 466 470 Z" class="orange"/><path d="M 501 446 L 499 483 L 497 494 L 498 506 L 498 504 L 499 503 L 500 493 L 500 482 L 502 471 L 502 451 L 501 450 Z" class="orange"/><path d="M 457 436 L 455 437 L 454 440 L 454 442 L 456 445 L 456 447 L 454 453 L 452 455 L 451 460 L 451 465 L 453 461 L 458 456 L 456 455 L 456 450 L 458 448 L 458 446 L 456 444 L 457 438 Z" class="orange"/><path d="M 447 430 L 446 432 L 448 434 L 448 437 L 446 441 L 446 445 L 445 449 L 444 450 L 444 452 L 446 451 L 446 449 L 448 444 L 450 442 L 450 434 Z" class="orange"/><path d="M 420 430 L 416 430 L 416 437 L 415 443 L 411 447 L 409 447 L 409 450 L 416 449 L 416 446 L 418 443 L 419 438 Z" class="orange"/><path d="M 468 427 L 465 429 L 464 429 L 463 435 L 466 435 L 468 433 Z" class="orange"/><path d="M 434 423 L 433 428 L 434 429 L 434 434 L 433 438 L 437 430 L 439 432 L 439 437 L 439 434 L 440 433 L 439 428 L 437 429 L 435 427 Z" class="orange"/><path d="M 501 407 L 498 417 L 497 423 L 497 430 L 495 437 L 496 454 L 496 448 L 497 447 L 497 438 L 498 429 L 500 423 L 500 411 L 501 410 Z" class="orange"/><path d="M 454 407 L 454 414 L 458 417 L 459 422 L 462 419 L 462 417 L 461 415 L 460 414 L 459 414 L 458 413 L 457 411 L 457 410 L 456 408 Z" class="orange"/><path d="M 438 404 L 436 406 L 436 409 L 434 412 L 434 414 L 436 416 L 437 414 L 437 407 L 438 406 Z" class="orange"/><path d="M 442 397 L 442 403 L 446 404 L 446 401 L 444 397 Z" class="orange"/><path d="M 463 394 L 462 396 L 462 399 L 463 401 L 466 401 L 466 395 Z" class="orange"/><path d="M 475 378 L 477 380 L 477 383 L 478 384 L 477 387 L 475 388 L 473 386 Z" class="orange"/><path d="M 732 367 L 730 374 L 731 380 L 738 381 L 736 371 L 736 377 L 734 379 L 731 378 L 731 373 L 732 372 Z" class="orange"/><path d="M 489 361 L 491 363 L 489 365 L 489 370 L 487 374 L 484 378 L 484 370 L 485 366 L 487 362 Z" class="orange"/><path d="M 281 359 L 285 361 L 292 363 L 294 363 L 299 362 L 296 360 L 290 359 L 288 359 L 287 360 L 285 360 L 284 359 Z" class="orange"/><path d="M 296 352 L 298 350 L 300 351 L 301 353 L 304 354 L 307 357 L 306 360 L 300 357 Z" class="orange"/><path d="M 615 357 L 615 359 L 618 359 L 619 360 L 627 360 L 631 361 L 635 363 L 639 363 L 648 368 L 653 368 L 662 372 L 675 375 L 685 376 L 684 374 L 681 374 L 678 373 L 675 370 L 674 355 L 673 371 L 671 371 L 668 369 L 664 369 L 654 365 L 651 362 L 647 362 L 642 358 L 642 357 L 639 355 L 638 358 L 634 358 L 632 356 L 633 351 L 635 351 L 637 353 L 636 350 L 632 351 L 630 353 L 627 353 L 627 356 L 624 356 L 623 359 L 621 359 L 617 357 Z" class="orange"/><path d="M 313 344 L 315 346 L 313 358 L 311 355 Z" class="orange"/><path d="M 389 337 L 390 339 L 391 354 L 390 359 L 388 361 L 386 359 L 386 343 Z" class="orange"/><path d="M 441 334 L 440 358 L 443 357 L 443 355 L 442 339 L 441 338 Z" class="orange"/><path d="M 383 333 L 384 335 L 385 336 L 383 360 L 381 358 L 381 335 Z" class="orange"/><path d="M 188 334 L 190 335 L 193 335 L 197 337 L 206 338 L 211 340 L 214 340 L 213 338 L 208 338 L 203 337 L 199 335 L 195 335 L 191 334 L 190 333 Z" class="orange"/><path d="M 753 331 L 752 340 L 753 341 L 753 374 L 751 379 L 756 379 L 754 376 L 754 369 L 755 348 L 754 339 L 753 338 Z" class="orange"/><path d="M 732 331 L 731 335 L 730 336 L 730 342 L 732 345 L 733 355 L 733 342 L 732 341 Z" class="orange"/><path d="M 309 326 L 310 333 L 309 339 L 310 355 L 308 357 L 306 355 L 307 349 L 307 347 L 306 345 L 307 341 L 305 331 L 305 327 Z" class="orange"/><path d="M 810 344 L 810 363 L 809 367 L 807 369 L 805 369 L 801 366 L 800 348 L 799 363 L 798 365 L 795 367 L 790 364 L 789 367 L 787 369 L 784 368 L 784 351 L 786 325 L 784 326 L 782 345 L 781 369 L 776 373 L 769 375 L 758 376 L 758 378 L 768 377 L 771 375 L 778 374 L 785 370 L 789 370 L 790 369 L 802 371 L 805 373 L 810 374 L 812 372 L 812 370 L 810 368 L 812 349 Z" class="orange"/><path d="M 350 319 L 350 326 L 351 331 L 356 347 L 357 352 L 357 358 L 355 360 L 353 360 L 351 358 L 350 350 L 349 350 L 347 348 L 347 353 L 346 354 L 343 359 L 343 345 L 344 340 L 346 336 L 346 324 Z" class="orange"/><path d="M 371 318 L 373 334 L 373 357 L 371 359 L 364 359 L 362 357 L 362 332 L 366 328 L 367 341 L 366 354 L 368 356 L 368 344 L 369 343 L 369 332 Z" class="orange"/><path d="M 318 316 L 320 318 L 320 338 L 321 339 L 320 359 L 317 358 L 318 341 L 317 326 L 315 319 Z" class="orange"/><path d="M 323 314 L 325 316 L 326 324 L 326 326 L 325 327 L 325 330 L 326 331 L 323 335 L 321 324 L 321 316 Z" class="orange"/><path d="M 489 312 L 490 316 L 491 319 L 489 323 L 488 331 L 487 329 L 486 328 L 486 317 L 487 314 Z" class="orange"/><path d="M 335 312 L 336 314 L 337 315 L 338 321 L 338 345 L 334 353 L 333 314 Z" class="orange"/><path d="M 479 311 L 480 323 L 481 338 L 481 341 L 477 342 L 476 327 Z" class="orange"/><path d="M 342 307 L 344 309 L 341 331 L 341 327 L 340 326 L 341 321 L 340 314 L 338 310 Z" class="orange"/><path d="M 624 306 L 622 306 L 617 311 L 614 317 L 610 328 L 609 334 L 609 336 L 611 343 L 612 337 L 612 332 L 613 330 L 615 328 L 618 327 L 617 322 L 617 320 L 618 317 L 622 313 L 623 309 L 625 309 Z" class="orange"/><path d="M 357 300 L 359 302 L 360 305 L 361 313 L 360 316 L 361 327 L 360 329 L 357 329 L 356 326 L 355 308 L 355 302 Z" class="orange"/><path d="M 209 300 L 209 302 L 206 306 L 201 308 L 201 305 Z" class="orange"/><path d="M 700 294 L 698 298 L 699 364 L 697 373 L 695 375 L 704 375 L 706 377 L 721 380 L 719 374 L 716 377 L 714 375 L 715 356 L 713 327 L 712 330 L 712 363 L 711 375 L 708 377 L 706 376 L 704 373 L 700 373 L 699 370 L 701 360 L 704 360 L 704 353 L 701 352 L 700 346 L 701 329 L 700 328 L 701 317 Z" class="orange"/><path d="M 478 293 L 480 295 L 480 299 L 479 301 L 478 304 L 476 302 Z" class="orange"/><path d="M 368 293 L 371 294 L 371 299 L 367 315 L 366 300 L 366 295 Z" class="orange"/><path d="M 374 290 L 376 292 L 373 315 L 372 311 L 372 292 Z" class="orange"/><path d="M 200 289 L 202 291 L 202 297 L 198 297 L 196 295 L 196 293 L 198 291 L 198 290 Z" class="orange"/><path d="M 396 289 L 395 313 L 396 314 L 397 348 L 397 292 L 396 291 Z" class="orange"/><path d="M 380 288 L 382 290 L 383 296 L 382 322 L 381 327 L 380 330 L 378 332 L 374 324 L 374 322 L 377 320 L 378 318 L 378 306 L 377 291 Z" class="orange"/><path d="M 418 288 L 417 322 L 418 323 L 419 363 L 420 344 L 419 337 L 420 333 L 420 317 L 418 305 L 419 297 Z" class="orange"/><path d="M 449 284 L 451 286 L 452 327 L 451 343 L 449 341 L 448 338 L 446 326 L 446 304 L 448 291 L 447 286 Z" class="orange"/><path d="M 430 285 L 428 286 L 428 303 L 429 304 L 429 341 L 428 353 L 429 354 L 430 362 L 433 359 L 433 360 L 435 361 L 436 352 L 435 347 L 436 341 L 435 331 L 435 294 L 435 324 L 431 328 L 430 323 Z" class="orange"/><path d="M 468 287 L 472 346 L 470 301 L 474 295 L 476 346 L 490 336 L 486 350 L 483 348 L 472 357 L 471 366 L 458 363 L 455 370 L 453 362 L 445 367 L 445 372 L 439 370 L 434 375 L 430 369 L 430 376 L 420 375 L 414 388 L 410 381 L 397 375 L 397 362 L 393 362 L 388 289 L 400 288 L 402 358 L 406 362 L 407 311 L 404 347 L 401 287 L 411 286 L 413 364 L 412 284 L 421 286 L 424 319 L 423 281 L 439 284 L 441 312 L 440 285 L 444 285 L 444 330 L 449 357 L 448 350 L 453 347 L 455 356 L 455 286 L 458 356 L 460 285 L 464 288 L 462 326 L 467 353 L 473 349 L 467 353 L 464 296 Z" class="orange"/><path d="M 667 280 L 671 281 L 672 280 L 687 279 L 704 279 L 717 280 L 718 281 L 722 280 L 719 280 L 718 279 L 712 279 L 707 278 L 705 276 L 692 276 L 673 278 Z" class="orange"/><path d="M 238 271 L 241 271 L 243 273 L 244 276 L 240 279 L 236 275 L 236 273 Z" class="orange"/><path d="M 267 270 L 267 272 L 266 275 L 257 284 L 256 281 L 261 276 L 261 274 L 262 272 L 264 270 Z" class="orange"/><path d="M 829 270 L 831 268 L 833 268 L 836 266 L 840 270 L 845 272 L 848 275 L 849 278 L 850 282 L 846 278 L 844 277 L 839 276 L 836 273 L 833 273 Z" class="orange"/><path d="M 292 260 L 294 262 L 295 270 L 293 268 L 291 265 L 290 262 Z" class="orange"/><path d="M 819 255 L 821 253 L 823 253 L 825 254 L 825 257 L 822 258 Z" class="orange"/><path d="M 259 255 L 261 253 L 265 253 L 268 254 L 273 257 L 274 260 L 268 265 L 266 263 L 268 260 L 266 258 L 263 258 L 261 257 Z" class="orange"/><path d="M 293 251 L 296 252 L 296 256 L 293 259 L 290 256 L 290 254 Z" class="orange"/><path d="M 288 253 L 286 254 L 285 257 L 284 258 L 280 261 L 276 263 L 273 262 L 275 260 L 276 257 L 278 256 L 282 255 Z" class="orange"/><path d="M 243 253 L 241 255 L 241 256 L 239 258 L 237 256 L 237 254 L 238 252 Z" class="orange"/><path d="M 325 231 L 325 229 L 327 225 L 329 225 L 330 227 L 335 226 L 335 228 L 331 232 Z" class="orange"/><path d="M 235 222 L 236 220 L 241 220 L 245 221 L 248 223 L 248 227 L 246 227 L 244 225 L 239 223 Z" class="orange"/><path d="M 403 212 L 401 214 L 398 215 L 392 221 L 389 219 L 394 214 L 399 211 Z" class="orange"/><path d="M 389 221 L 388 224 L 385 225 L 360 250 L 357 251 L 354 254 L 350 255 L 341 260 L 348 252 L 344 251 L 338 245 L 337 242 L 324 240 L 326 238 L 334 237 L 335 238 L 342 235 L 343 236 L 350 236 L 343 241 L 351 246 L 349 249 L 350 251 L 353 251 L 355 250 L 356 246 L 354 242 L 358 239 L 361 232 L 360 228 L 357 234 L 352 234 L 351 228 L 357 224 L 359 220 L 357 218 L 358 213 L 363 218 L 366 230 L 361 239 L 362 243 L 364 243 L 374 233 L 375 230 L 372 226 L 370 218 L 367 215 L 370 211 L 380 210 L 385 213 L 382 215 L 382 217 L 385 219 L 377 218 L 377 220 L 379 222 L 379 228 L 383 223 Z" class="orange"/><path d="M 322 205 L 322 211 L 326 215 L 332 215 L 337 214 L 338 213 L 340 212 L 337 209 L 333 209 L 331 207 L 330 204 L 325 207 Z" class="orange"/><path d="M 434 203 L 432 203 L 431 204 L 427 205 L 418 206 L 414 207 L 412 209 L 414 208 L 418 208 L 427 206 L 431 204 Z" class="orange"/><path d="M 249 199 L 251 201 L 247 205 L 245 206 L 244 204 Z" class="orange"/><path d="M 269 199 L 273 203 L 273 206 L 274 207 L 274 209 L 272 213 L 272 217 L 253 235 L 247 245 L 247 249 L 242 250 L 244 248 L 245 245 L 245 242 L 247 239 L 247 236 L 249 231 L 253 226 L 253 224 L 264 214 L 268 209 L 268 207 L 267 204 L 265 202 L 262 201 L 262 198 L 266 198 Z" class="orange"/><path d="M 325 192 L 323 196 L 321 196 L 319 198 L 318 200 L 317 203 L 316 209 L 317 218 L 318 204 L 320 200 L 322 200 L 324 198 L 324 197 L 327 195 Z" class="orange"/><path d="M 379 181 L 382 178 L 384 177 L 387 177 L 389 179 L 389 182 L 391 184 L 390 187 L 387 187 L 381 184 Z" class="orange"/><path d="M 303 177 L 305 179 L 304 182 L 303 182 L 301 183 L 299 182 L 297 180 L 299 178 L 301 177 Z" class="orange"/><path d="M 506 168 L 503 169 L 496 174 L 493 173 L 490 176 L 488 176 L 485 178 L 478 185 L 472 188 L 470 186 L 475 181 L 473 180 L 472 175 L 470 174 L 468 176 L 471 178 L 469 180 L 466 179 L 468 182 L 468 185 L 470 188 L 468 190 L 459 193 L 458 191 L 453 191 L 450 194 L 441 197 L 438 197 L 436 195 L 436 192 L 433 190 L 429 194 L 429 198 L 427 200 L 439 199 L 446 196 L 450 196 L 453 194 L 456 195 L 454 197 L 450 198 L 448 200 L 452 200 L 460 196 L 463 196 L 465 194 L 467 194 L 470 191 L 472 191 L 475 188 L 483 185 L 486 182 L 490 182 L 494 178 L 497 177 L 499 174 L 501 174 L 505 171 Z" class="orange"/><path d="M 303 163 L 301 163 L 294 167 L 291 168 L 298 168 L 300 166 L 303 165 Z" class="orange"/><path d="M 409 159 L 412 161 L 413 164 L 415 166 L 415 167 L 416 168 L 421 168 L 422 166 L 420 164 L 420 160 L 422 158 L 419 160 L 417 160 L 415 159 L 413 157 L 411 157 Z" class="orange"/><path d="M 335 150 L 334 150 L 332 152 L 330 153 L 322 153 L 320 150 L 323 150 L 326 148 L 330 147 Z" class="orange"/><path d="M 451 146 L 451 157 L 452 159 L 455 162 L 456 162 L 460 165 L 460 163 L 458 161 L 455 160 L 454 159 L 453 157 Z" class="orange"/><path d="M 637 146 L 637 151 L 640 154 L 661 153 L 698 163 L 706 170 L 739 186 L 766 215 L 776 218 L 796 230 L 804 239 L 816 261 L 845 284 L 862 309 L 869 338 L 870 354 L 865 362 L 852 366 L 848 370 L 857 366 L 866 369 L 871 367 L 876 361 L 876 348 L 872 333 L 870 306 L 856 281 L 833 250 L 831 252 L 836 261 L 833 264 L 818 245 L 821 239 L 814 232 L 779 212 L 776 213 L 768 202 L 759 198 L 738 179 L 719 168 L 707 165 L 687 155 L 661 149 L 652 144 L 647 147 L 641 144 Z" class="orange"/><path d="M 678 144 L 681 146 L 684 147 L 687 147 L 689 149 L 689 147 L 688 145 L 685 143 Z" class="orange"/><path d="M 283 145 L 283 141 L 287 141 L 290 143 L 285 147 Z" class="orange"/><path d="M 557 138 L 560 138 L 562 141 L 561 143 L 559 146 L 560 148 L 563 151 L 559 154 L 557 152 L 555 148 L 556 140 Z" class="orange"/><path d="M 307 139 L 309 137 L 318 138 L 318 140 L 316 142 L 314 143 L 309 142 Z" class="orange"/><path d="M 598 136 L 598 139 L 596 143 L 595 147 L 593 149 L 589 149 L 585 150 L 584 151 L 582 148 L 584 147 L 587 147 L 591 145 L 591 142 L 587 142 L 585 140 L 587 138 L 589 138 L 591 137 L 595 134 L 597 136 Z" class="orange"/><path d="M 350 130 L 353 131 L 353 134 L 354 135 L 353 139 L 354 141 L 356 144 L 356 147 L 350 153 L 347 152 L 347 150 L 350 146 L 351 144 L 351 141 L 349 139 L 347 141 L 345 141 L 344 140 L 341 140 L 339 137 L 342 134 L 344 133 L 346 133 L 348 132 Z" class="orange"/><path d="M 315 131 L 313 133 L 313 134 L 311 136 L 308 138 L 302 138 L 298 134 L 298 133 L 296 131 L 300 130 L 307 131 L 313 129 Z" class="orange"/><path d="M 671 125 L 670 122 L 669 122 L 667 120 L 663 120 L 662 123 L 657 122 L 644 123 L 638 125 L 631 128 L 632 130 L 634 128 L 640 128 L 642 131 L 646 131 L 649 130 L 655 127 L 661 128 L 664 126 L 669 127 Z" class="orange"/><path d="M 582 118 L 584 120 L 577 129 L 577 131 L 584 131 L 587 132 L 584 135 L 581 136 L 573 136 L 571 134 L 571 129 L 576 122 L 578 120 L 580 120 Z" class="orange"/><path d="M 330 122 L 333 119 L 336 118 L 338 118 L 340 119 L 341 125 L 339 127 L 334 127 L 332 126 L 331 125 L 331 124 Z" class="orange"/><path d="M 601 113 L 602 115 L 604 115 L 608 120 L 607 125 L 608 128 L 610 130 L 613 131 L 616 133 L 619 129 L 624 134 L 626 137 L 626 133 L 628 131 L 629 129 L 624 128 L 622 128 L 620 126 L 616 125 L 612 121 L 611 117 L 608 115 L 605 115 L 603 113 Z" class="orange"/><path d="M 349 109 L 350 107 L 353 107 L 354 108 L 356 109 L 354 111 L 352 112 Z" class="orange"/><path d="M 626 107 L 629 110 L 631 111 L 636 111 L 639 112 L 643 114 L 640 113 L 637 110 L 631 107 Z" class="orange"/><path d="M 360 104 L 304 123 L 269 159 L 263 151 L 210 186 L 159 252 L 149 290 L 169 324 L 283 344 L 316 364 L 394 364 L 384 438 L 422 394 L 428 416 L 441 378 L 452 392 L 472 376 L 471 412 L 486 381 L 431 688 L 439 787 L 462 842 L 438 751 L 453 606 L 454 670 L 472 586 L 458 635 L 494 412 L 493 315 L 477 290 L 420 278 L 367 287 L 294 330 L 332 273 L 301 303 L 288 345 L 313 250 L 322 245 L 333 266 L 319 260 L 313 283 L 429 185 L 421 192 L 416 173 L 405 186 L 412 171 L 399 155 L 397 177 L 373 155 L 375 169 L 361 168 L 371 177 L 359 177 L 379 179 L 368 193 L 380 194 L 366 201 L 406 188 L 396 199 L 408 203 L 364 207 L 330 191 L 354 223 L 342 234 L 342 216 L 320 219 L 320 243 L 303 237 L 288 252 L 302 205 L 273 210 L 313 177 L 259 179 L 247 193 L 246 168 L 346 155 L 309 166 L 322 180 L 304 203 L 363 146 L 396 146 L 365 143 L 392 120 Z" class="orange"/><path d="M 577 100 L 579 100 L 581 102 L 588 101 L 609 101 L 604 101 L 603 100 L 591 99 L 589 99 L 588 100 Z" class="orange"/><path d="M 550 99 L 551 99 L 553 100 L 556 99 L 557 100 L 559 100 L 563 98 L 566 99 L 569 102 L 571 102 L 573 99 L 571 100 L 569 98 L 551 96 Z" class="orange"/><path d="M 383 99 L 389 109 L 410 111 L 411 115 L 393 114 L 402 118 L 405 138 L 409 117 L 413 131 L 444 140 L 463 130 L 493 130 L 501 123 L 507 133 L 530 144 L 534 150 L 524 152 L 523 146 L 520 149 L 496 134 L 522 154 L 515 162 L 519 207 L 524 158 L 558 161 L 586 153 L 614 152 L 598 143 L 607 139 L 606 133 L 596 135 L 585 128 L 589 124 L 598 129 L 598 116 L 589 120 L 576 112 L 567 117 L 537 108 L 542 117 L 540 121 L 531 115 L 517 115 L 518 103 L 489 127 L 462 125 L 448 137 L 413 126 L 414 115 L 417 125 L 440 122 L 438 113 L 433 111 L 437 109 L 448 117 L 460 117 L 462 113 L 471 121 L 489 123 L 506 111 L 506 107 L 484 102 L 475 110 L 470 103 L 483 99 L 488 93 L 507 97 L 504 92 L 457 91 L 469 101 L 458 101 L 442 93 L 433 106 L 407 95 L 399 97 L 408 101 L 401 105 L 387 100 L 395 97 Z" class="orange"/></g><g id="ink-shade"><path d="M 484 942 L 485 944 L 491 945 L 491 941 L 486 941 Z" class="ink"/><path d="M 501 919 L 503 918 L 505 920 L 507 920 L 509 922 L 508 927 L 507 927 L 505 928 L 503 927 L 500 924 L 500 921 Z" class="ink"/><path d="M 440 917 L 442 917 L 443 918 L 446 918 L 448 920 L 448 923 L 445 925 L 442 922 L 441 922 L 439 920 Z" class="ink"/><path d="M 536 908 L 532 908 L 530 909 L 529 912 L 527 914 L 529 915 L 530 916 L 529 914 L 532 911 L 535 910 Z" class="ink"/><path d="M 613 908 L 618 909 L 617 916 L 617 920 L 618 924 L 620 926 L 622 926 L 621 923 L 618 920 L 619 910 L 617 908 L 617 907 Z" class="ink"/><path d="M 559 904 L 556 903 L 553 901 L 548 901 L 546 903 L 542 903 L 540 905 L 539 908 L 541 908 L 543 911 L 540 914 L 539 917 L 542 917 L 547 911 L 548 910 L 550 909 L 558 908 L 557 905 Z" class="ink"/><path d="M 465 897 L 467 899 L 467 902 L 465 904 L 463 902 L 460 900 L 462 898 Z" class="ink"/><path d="M 524 898 L 524 900 L 525 902 L 527 904 L 529 905 L 532 904 L 532 902 L 531 901 L 530 897 L 527 903 L 526 901 Z" class="ink"/><path d="M 611 898 L 606 901 L 604 900 L 602 898 L 601 896 L 599 897 L 596 900 L 594 901 L 591 898 L 584 899 L 585 902 L 593 902 L 589 906 L 586 908 L 571 908 L 571 912 L 580 912 L 583 915 L 586 914 L 589 910 L 590 910 L 598 901 L 604 901 L 606 903 L 604 906 L 605 912 L 608 912 L 610 910 L 605 908 L 609 904 L 611 900 Z" class="ink"/><path d="M 406 889 L 408 890 L 411 893 L 411 897 L 409 897 L 407 899 L 401 902 L 403 900 L 403 895 Z" class="ink"/><path d="M 598 886 L 597 889 L 603 889 L 608 891 L 608 888 L 607 886 L 606 885 L 604 884 L 602 884 Z" class="ink"/><path d="M 426 882 L 429 884 L 428 886 L 431 888 L 433 886 L 433 884 L 435 882 L 437 882 L 434 881 L 433 882 L 431 882 L 430 881 L 428 881 Z" class="ink"/><path d="M 501 873 L 499 871 L 496 870 L 493 870 L 492 871 L 489 871 L 490 874 L 494 874 L 495 873 L 499 874 L 498 879 L 496 880 L 494 880 L 486 879 L 486 877 L 484 877 L 485 883 L 491 884 L 493 884 L 494 883 L 498 882 L 499 879 L 502 875 Z" class="ink"/><path d="M 371 888 L 375 892 L 385 888 L 391 892 L 403 890 L 391 908 L 395 920 L 400 918 L 396 904 L 409 913 L 418 914 L 424 919 L 425 932 L 438 944 L 438 936 L 428 930 L 427 918 L 417 911 L 437 908 L 437 902 L 433 900 L 438 896 L 445 900 L 441 905 L 447 905 L 455 914 L 451 917 L 442 909 L 437 916 L 430 914 L 431 922 L 438 923 L 443 934 L 447 931 L 461 946 L 451 932 L 452 929 L 463 931 L 461 936 L 474 939 L 475 932 L 492 938 L 490 923 L 495 929 L 502 930 L 503 937 L 508 938 L 513 932 L 512 925 L 520 924 L 519 917 L 524 912 L 512 895 L 502 893 L 487 898 L 492 904 L 496 903 L 498 897 L 508 898 L 513 909 L 514 904 L 518 911 L 514 918 L 511 913 L 501 916 L 496 914 L 502 911 L 500 906 L 486 909 L 489 924 L 483 920 L 479 910 L 474 914 L 475 921 L 467 924 L 460 920 L 461 913 L 467 915 L 467 908 L 476 902 L 471 901 L 476 889 L 469 876 L 459 885 L 462 891 L 458 896 L 452 890 L 453 896 L 460 901 L 459 909 L 449 899 L 448 883 L 442 877 L 446 887 L 439 884 L 438 892 L 432 891 L 427 895 L 425 889 L 420 887 L 420 893 L 416 894 L 416 889 L 410 887 L 409 883 L 401 885 L 408 874 L 397 863 L 394 863 L 396 873 L 405 877 L 403 879 L 395 876 L 384 878 L 381 874 L 378 880 L 373 879 Z" class="ink"/><path d="M 642 861 L 638 861 L 638 862 L 636 864 L 634 864 L 634 870 L 631 872 L 629 870 L 629 869 L 626 868 L 625 869 L 622 869 L 620 871 L 619 873 L 617 872 L 617 874 L 618 878 L 615 880 L 611 877 L 609 877 L 609 879 L 611 879 L 613 881 L 613 888 L 617 888 L 619 891 L 621 891 L 624 889 L 626 891 L 629 888 L 629 886 L 627 884 L 627 882 L 633 876 L 635 878 L 635 883 L 636 887 L 639 889 L 641 887 L 641 885 L 639 882 L 637 881 L 636 877 L 642 870 L 643 868 Z" class="ink"/><path d="M 373 856 L 371 858 L 370 860 L 370 862 L 372 865 L 378 864 L 382 868 L 382 866 L 380 862 L 378 859 L 375 856 Z" class="ink"/><path d="M 346 851 L 347 856 L 349 858 L 352 857 L 352 855 L 348 851 Z" class="ink"/><path d="M 409 845 L 409 847 L 408 849 L 411 849 L 413 850 L 415 852 L 415 853 L 416 854 L 421 857 L 414 850 L 414 846 L 412 846 L 411 845 Z" class="ink"/><path d="M 470 845 L 462 844 L 458 841 L 453 841 L 449 843 L 445 843 L 437 849 L 435 849 L 427 847 L 423 845 L 423 844 L 420 843 L 421 850 L 423 852 L 423 854 L 425 854 L 425 849 L 427 849 L 435 851 L 435 854 L 434 856 L 438 850 L 442 849 L 441 852 L 434 860 L 432 859 L 431 861 L 428 863 L 428 865 L 425 870 L 419 877 L 417 877 L 414 874 L 411 869 L 411 866 L 407 862 L 407 861 L 404 859 L 410 866 L 411 869 L 411 874 L 413 874 L 416 877 L 413 881 L 415 881 L 420 877 L 425 875 L 431 869 L 431 866 L 434 861 L 441 855 L 442 852 L 446 848 L 452 847 L 451 845 L 453 843 L 457 843 L 468 847 Z" class="ink"/><path d="M 349 842 L 349 846 L 352 849 L 355 849 L 358 852 L 358 854 L 359 856 L 362 856 L 364 855 L 367 852 L 366 850 L 360 845 L 356 846 L 351 841 Z" class="ink"/><path d="M 655 834 L 646 839 L 646 835 L 645 839 L 643 843 L 639 847 L 637 851 L 637 853 L 641 851 L 647 846 L 650 845 L 651 844 L 651 843 L 653 841 L 653 837 Z" class="ink"/><path d="M 423 829 L 419 832 L 417 830 L 417 834 L 413 837 L 408 837 L 409 841 L 412 841 L 414 839 L 417 839 L 421 840 L 421 838 L 420 837 L 421 833 L 422 833 Z" class="ink"/><path d="M 371 818 L 371 822 L 372 824 L 374 827 L 378 830 L 377 828 L 377 825 L 376 823 L 373 820 L 373 819 Z" class="ink"/><path d="M 657 807 L 655 809 L 655 812 L 654 814 L 651 817 L 649 821 L 650 824 L 655 820 L 656 819 L 657 817 L 658 813 Z" class="ink"/><path d="M 344 772 L 344 775 L 341 778 L 341 781 L 342 784 L 343 786 L 345 787 L 346 784 L 344 780 L 344 778 L 346 776 Z" class="ink"/><path d="M 375 700 L 374 702 L 374 704 L 371 707 L 370 709 L 371 712 L 372 712 L 374 715 L 373 718 L 376 722 L 375 710 L 375 704 L 376 703 Z" class="ink"/><path d="M 342 698 L 340 699 L 340 700 L 338 701 L 338 704 L 339 704 L 341 706 L 344 705 L 344 701 Z" class="ink"/><path d="M 492 670 L 492 673 L 494 676 L 495 681 L 496 676 L 495 672 L 494 670 Z" class="ink"/><path d="M 328 620 L 326 620 L 327 626 L 325 629 L 327 632 L 327 636 L 328 634 L 329 629 L 329 624 L 328 623 Z" class="ink"/><path d="M 440 570 L 438 571 L 437 574 L 437 578 L 439 586 L 440 584 L 440 581 L 441 580 L 441 578 Z" class="ink"/><path d="M 399 551 L 396 551 L 395 553 L 395 556 L 396 557 L 397 559 L 398 557 L 399 554 Z" class="ink"/><path d="M 374 519 L 373 530 L 375 529 L 376 529 L 377 528 L 378 526 L 378 523 L 376 525 L 374 523 Z" class="ink"/><path d="M 429 493 L 426 494 L 426 497 L 421 503 L 421 505 L 420 506 L 419 508 L 420 506 L 426 503 L 427 505 L 428 511 L 428 505 L 430 502 Z" class="ink"/><path d="M 459 482 L 458 486 L 457 487 L 458 507 L 459 507 L 460 512 L 459 513 L 459 519 L 460 514 L 461 513 L 461 487 L 460 484 Z" class="ink"/><path d="M 447 482 L 441 488 L 439 492 L 440 500 L 441 498 L 441 496 L 443 494 L 445 496 L 445 506 L 448 508 L 447 497 Z" class="ink"/><path d="M 475 481 L 474 483 L 473 484 L 473 487 L 464 504 L 464 507 L 466 509 L 466 507 L 468 504 L 469 499 L 472 494 L 474 488 L 475 484 Z" class="ink"/><path d="M 414 467 L 411 471 L 410 474 L 410 478 L 408 480 L 406 476 L 405 480 L 407 488 L 408 497 L 414 489 L 415 486 L 413 484 L 414 481 L 413 480 L 413 478 L 414 472 L 415 471 Z" class="ink"/><path d="M 442 466 L 439 468 L 439 480 L 441 480 L 443 479 L 445 477 L 445 471 L 444 468 Z" class="ink"/><path d="M 394 462 L 392 465 L 391 473 L 389 481 L 388 483 L 383 489 L 379 497 L 379 501 L 382 499 L 383 497 L 383 495 L 388 490 L 388 488 L 393 486 L 393 488 L 394 490 L 392 497 L 395 500 L 396 509 L 396 502 L 398 500 L 398 497 L 397 496 L 396 491 L 396 480 L 394 477 L 396 474 L 396 471 Z" class="ink"/><path d="M 458 458 L 455 460 L 453 463 L 451 468 L 451 470 L 453 469 L 458 464 L 459 461 L 458 460 Z" class="ink"/><path d="M 431 455 L 429 456 L 426 460 L 425 461 L 422 462 L 421 466 L 422 469 L 427 474 L 427 476 L 422 485 L 428 480 L 429 478 L 429 474 L 427 473 L 426 470 L 428 467 L 431 464 L 431 461 L 433 457 Z" class="ink"/><path d="M 471 447 L 469 451 L 469 454 L 471 459 L 474 458 L 474 455 L 472 452 Z" class="ink"/><path d="M 439 440 L 438 448 L 439 452 L 441 456 L 444 454 L 443 452 L 439 445 Z" class="ink"/><path d="M 431 442 L 424 445 L 423 442 L 423 440 L 422 454 L 424 454 L 426 452 L 429 447 Z" class="ink"/><path d="M 389 431 L 387 433 L 387 437 L 383 438 L 383 433 L 382 439 L 380 444 L 377 448 L 374 458 L 374 466 L 370 472 L 370 475 L 368 477 L 365 490 L 361 496 L 361 498 L 364 497 L 366 495 L 366 490 L 368 488 L 369 482 L 373 478 L 375 480 L 375 486 L 373 497 L 379 485 L 376 468 L 377 456 L 379 455 L 381 457 L 380 459 L 381 472 L 384 475 L 388 468 L 389 460 L 395 447 L 395 444 L 394 443 L 395 437 L 393 437 L 393 443 L 391 446 L 391 449 L 390 451 L 387 454 L 385 452 L 385 442 L 388 438 Z" class="ink"/><path d="M 407 430 L 405 432 L 401 444 L 401 464 L 403 470 L 405 470 L 407 468 L 408 466 L 409 461 L 413 454 L 413 451 L 409 452 L 409 453 L 405 454 L 405 452 L 403 449 L 403 445 L 404 441 L 406 438 L 406 432 Z" class="ink"/><path d="M 407 366 L 409 368 L 407 370 L 407 371 L 404 373 L 402 370 L 404 368 L 405 368 Z" class="ink"/><path d="M 297 352 L 302 357 L 304 358 L 306 358 L 304 355 L 300 352 Z" class="ink"/><path d="M 489 336 L 487 337 L 487 338 L 484 340 L 481 344 L 475 348 L 472 352 L 467 355 L 463 355 L 452 359 L 443 358 L 435 363 L 419 365 L 400 364 L 398 366 L 399 371 L 398 372 L 399 375 L 402 374 L 403 377 L 405 379 L 408 379 L 410 380 L 413 384 L 414 387 L 416 379 L 419 379 L 419 375 L 421 373 L 423 373 L 425 376 L 430 375 L 429 369 L 433 368 L 435 374 L 434 371 L 436 369 L 439 369 L 440 370 L 446 371 L 445 366 L 449 366 L 454 361 L 456 363 L 454 366 L 455 369 L 458 366 L 457 363 L 459 361 L 465 361 L 467 364 L 470 363 L 471 365 L 473 360 L 471 357 L 474 354 L 478 353 L 480 350 L 484 347 L 487 349 L 487 345 L 488 344 Z" class="ink"/><path d="M 228 336 L 230 338 L 237 337 L 243 338 L 247 339 L 245 338 L 243 336 L 243 335 L 236 334 L 233 336 Z" class="ink"/><path d="M 617 329 L 614 330 L 613 332 L 613 337 L 611 344 L 610 356 L 610 388 L 611 396 L 613 400 L 614 409 L 615 406 L 614 405 L 612 385 L 612 360 L 614 358 L 614 357 L 617 356 L 621 358 L 623 358 L 624 355 L 627 355 L 628 351 L 630 352 L 632 349 L 630 346 L 626 344 L 621 339 L 620 336 L 618 333 Z" class="ink"/><path d="M 492 329 L 492 333 L 493 334 L 493 341 L 491 346 L 492 354 L 492 351 L 493 350 L 494 341 L 494 333 L 493 332 Z" class="ink"/><path d="M 168 320 L 171 324 L 176 324 L 182 326 L 186 329 L 198 328 L 212 328 L 215 331 L 217 332 L 217 330 L 215 328 L 213 327 L 195 327 L 187 328 L 176 322 L 173 322 L 170 320 Z" class="ink"/><path d="M 830 270 L 832 271 L 833 272 L 836 272 L 839 275 L 844 276 L 846 277 L 851 281 L 850 279 L 849 279 L 848 278 L 847 275 L 845 273 L 840 271 L 836 267 L 833 269 Z" class="ink"/><path d="M 319 259 L 321 259 L 324 261 L 327 262 L 328 265 L 332 265 L 331 263 L 329 260 L 328 257 L 322 258 Z" class="ink"/><path d="M 260 255 L 262 256 L 263 257 L 266 257 L 271 260 L 273 260 L 273 258 L 270 257 L 268 255 L 265 254 Z" class="ink"/><path d="M 316 249 L 314 250 L 312 256 L 313 266 L 312 276 L 310 282 L 311 286 L 306 292 L 303 298 L 298 304 L 294 314 L 291 318 L 289 325 L 289 330 L 287 332 L 287 337 L 286 338 L 286 342 L 288 344 L 288 339 L 289 338 L 289 332 L 291 323 L 300 303 L 307 293 L 319 281 L 332 272 L 336 267 L 334 267 L 330 271 L 326 273 L 320 278 L 312 283 L 312 280 L 315 276 L 316 269 L 314 266 L 315 257 L 317 252 Z" class="ink"/><path d="M 821 241 L 819 243 L 819 245 L 820 247 L 823 249 L 824 250 L 828 255 L 828 258 L 830 260 L 835 264 L 835 261 L 834 258 L 830 251 L 832 249 L 832 247 L 828 244 L 823 241 Z" class="ink"/><path d="M 305 235 L 308 238 L 313 242 L 315 243 L 317 240 L 316 240 L 314 238 L 311 237 L 308 234 Z" class="ink"/><path d="M 326 231 L 331 231 L 334 228 L 334 226 L 330 228 L 329 226 L 327 226 L 327 228 L 326 229 Z" class="ink"/><path d="M 236 222 L 239 222 L 244 224 L 246 226 L 248 226 L 250 227 L 248 224 L 245 222 L 241 221 Z" class="ink"/><path d="M 322 204 L 326 206 L 330 203 L 332 205 L 333 208 L 337 208 L 341 212 L 339 214 L 337 215 L 332 216 L 326 216 L 321 211 Z" class="ink"/><path d="M 305 204 L 303 205 L 303 207 L 304 208 L 303 213 L 304 221 L 302 225 L 297 231 L 295 234 L 293 239 L 291 241 L 291 243 L 294 240 L 294 239 L 298 235 L 304 227 L 308 220 L 308 207 Z" class="ink"/><path d="M 269 200 L 266 199 L 262 200 L 265 201 L 268 204 L 269 207 L 269 209 L 265 214 L 254 224 L 254 226 L 250 231 L 249 233 L 249 235 L 251 233 L 253 230 L 254 227 L 258 223 L 264 219 L 269 215 L 272 211 L 272 209 L 273 207 L 272 203 Z" class="ink"/><path d="M 303 194 L 297 197 L 291 202 L 294 202 L 299 199 Z" class="ink"/><path d="M 329 190 L 327 191 L 327 195 L 325 198 L 322 201 L 320 201 L 320 203 L 319 204 L 320 210 L 319 218 L 317 224 L 319 221 L 320 218 L 323 218 L 329 219 L 333 216 L 340 215 L 343 216 L 344 224 L 343 226 L 341 228 L 342 233 L 345 231 L 344 228 L 346 226 L 348 226 L 353 222 L 349 221 L 350 218 L 350 211 L 349 208 L 343 211 L 341 209 L 340 206 L 342 203 L 340 198 L 338 198 L 337 199 L 335 199 L 333 198 L 329 195 L 328 193 Z" class="ink"/><path d="M 409 200 L 400 199 L 399 200 L 395 198 L 398 195 L 398 194 L 400 192 L 407 192 L 406 189 L 404 189 L 403 190 L 396 190 L 389 193 L 387 195 L 386 195 L 385 196 L 384 199 L 382 201 L 377 203 L 375 203 L 371 201 L 368 201 L 365 203 L 362 203 L 355 200 L 357 204 L 360 204 L 364 206 L 367 206 L 372 205 L 373 206 L 378 206 L 382 204 L 388 203 L 390 205 L 390 207 L 392 206 L 393 204 L 395 203 L 401 202 L 405 205 Z" class="ink"/><path d="M 339 191 L 347 192 L 349 193 L 351 195 L 351 196 L 353 197 L 353 195 L 351 191 L 349 189 L 346 189 Z" class="ink"/><path d="M 382 179 L 381 183 L 387 186 L 390 186 L 390 184 L 388 182 L 387 178 L 384 178 Z" class="ink"/><path d="M 309 169 L 306 170 L 309 172 L 310 175 L 313 176 L 314 180 L 309 189 L 307 192 L 310 193 L 317 186 L 320 182 L 321 180 L 321 177 L 318 174 L 313 171 Z" class="ink"/><path d="M 256 170 L 249 169 L 245 171 L 247 173 L 251 173 L 253 175 L 254 177 L 254 179 L 249 185 L 249 189 L 248 190 L 248 193 L 250 192 L 255 187 L 257 183 L 257 180 L 260 177 L 256 174 Z" class="ink"/><path d="M 344 169 L 347 166 L 353 167 L 353 169 L 351 171 Z" class="ink"/><path d="M 407 155 L 410 155 L 413 156 L 415 158 L 417 159 L 419 159 L 423 158 L 421 160 L 421 164 L 423 167 L 421 169 L 418 170 L 416 169 L 414 167 L 412 164 L 411 161 L 410 160 L 406 157 Z" class="ink"/><path d="M 280 168 L 282 167 L 290 167 L 294 166 L 305 160 L 308 160 L 311 161 L 314 163 L 320 164 L 325 168 L 328 168 L 330 167 L 335 161 L 337 161 L 342 158 L 345 154 L 341 156 L 336 156 L 330 160 L 325 162 L 323 162 L 320 160 L 315 160 L 309 158 L 307 156 L 307 153 L 305 153 L 301 156 L 299 159 L 298 159 L 296 161 L 289 164 L 284 165 Z" class="ink"/><path d="M 335 148 L 330 148 L 326 149 L 323 151 L 320 152 L 324 151 L 327 153 L 330 152 L 332 151 Z" class="ink"/><path d="M 271 148 L 269 149 L 265 150 L 265 154 L 266 155 L 265 159 L 265 161 L 268 159 L 268 152 Z" class="ink"/><path d="M 678 142 L 685 142 L 687 144 L 688 144 L 689 145 L 689 146 L 688 149 L 684 148 L 681 147 L 679 145 L 678 145 Z" class="ink"/><path d="M 439 148 L 412 140 L 397 154 L 364 153 L 333 176 L 334 181 L 341 184 L 352 182 L 366 198 L 379 194 L 367 193 L 378 179 L 363 186 L 359 176 L 371 176 L 360 168 L 363 165 L 375 168 L 367 160 L 375 154 L 388 163 L 382 166 L 382 170 L 392 176 L 403 174 L 388 170 L 393 165 L 393 158 L 400 154 L 412 172 L 406 177 L 407 186 L 415 173 L 418 173 L 417 185 L 420 190 L 427 182 L 430 185 L 421 203 L 407 207 L 378 229 L 377 217 L 380 221 L 384 219 L 381 217 L 384 213 L 369 213 L 376 231 L 364 244 L 360 239 L 366 226 L 358 214 L 360 220 L 353 227 L 353 234 L 362 228 L 362 232 L 355 243 L 355 251 L 349 251 L 350 245 L 342 241 L 349 235 L 325 241 L 336 240 L 349 253 L 342 260 L 364 246 L 403 211 L 455 195 L 426 200 L 434 189 L 441 196 L 453 190 L 459 192 L 469 188 L 463 175 L 448 165 L 428 174 L 428 169 L 443 161 Z" class="ink"/><path d="M 656 140 L 659 139 L 661 138 L 663 141 L 661 143 L 657 142 Z" class="ink"/><path d="M 557 139 L 558 142 L 556 148 L 558 152 L 560 153 L 562 151 L 559 148 L 558 145 L 560 143 L 560 139 Z" class="ink"/><path d="M 351 139 L 352 144 L 348 152 L 350 152 L 355 147 L 355 144 L 353 140 Z" class="ink"/><path d="M 517 148 L 511 144 L 504 141 L 499 140 L 497 138 L 494 137 L 483 137 L 479 136 L 476 134 L 474 134 L 473 135 L 470 135 L 468 136 L 465 139 L 459 141 L 457 143 L 452 145 L 454 157 L 455 159 L 458 160 L 461 163 L 462 166 L 464 166 L 474 176 L 474 180 L 476 182 L 471 186 L 473 187 L 478 184 L 485 177 L 488 175 L 490 175 L 493 172 L 496 173 L 501 170 L 507 165 L 509 165 L 513 161 L 519 159 L 521 157 L 521 154 L 517 150 Z" class="ink"/><path d="M 316 141 L 317 138 L 308 137 L 310 135 L 311 135 L 312 134 L 314 131 L 311 131 L 307 132 L 301 132 L 300 131 L 297 131 L 299 133 L 299 134 L 302 137 L 309 138 L 309 141 L 314 142 Z" class="ink"/><path d="M 629 138 L 630 145 L 635 150 L 636 146 L 639 143 L 641 143 L 644 146 L 647 146 L 652 143 L 661 148 L 687 154 L 707 164 L 715 167 L 719 167 L 738 178 L 741 182 L 747 185 L 759 197 L 768 201 L 775 209 L 776 212 L 779 211 L 788 215 L 800 224 L 809 228 L 809 230 L 812 228 L 805 223 L 805 221 L 801 216 L 787 207 L 782 198 L 776 192 L 769 181 L 753 166 L 729 155 L 720 149 L 706 136 L 691 128 L 685 126 L 674 125 L 669 128 L 652 129 L 646 132 L 633 134 Z" class="ink"/><path d="M 389 124 L 389 126 L 387 129 L 387 131 L 389 134 L 385 138 L 378 141 L 373 142 L 371 142 L 369 141 L 366 138 L 372 133 L 373 129 L 379 123 L 387 122 Z" class="ink"/><path d="M 364 133 L 365 141 L 366 143 L 373 145 L 384 145 L 396 144 L 399 143 L 401 141 L 402 141 L 403 140 L 404 138 L 404 135 L 402 132 L 402 128 L 399 124 L 395 122 L 389 123 L 387 121 L 377 122 L 376 126 L 373 129 L 369 132 L 366 132 Z" class="ink"/><path d="M 331 123 L 332 125 L 334 126 L 339 126 L 340 120 L 338 119 L 336 119 L 333 120 Z" class="ink"/><path d="M 332 116 L 328 116 L 326 118 L 321 119 L 318 118 L 317 123 L 320 123 L 327 119 L 330 119 L 332 118 Z" class="ink"/><path d="M 461 124 L 459 122 L 458 119 L 458 117 L 448 118 L 443 116 L 442 111 L 440 110 L 437 110 L 434 111 L 438 112 L 440 114 L 440 117 L 438 119 L 440 123 L 430 122 L 428 124 L 428 125 L 425 127 L 417 126 L 415 124 L 415 122 L 416 121 L 416 118 L 413 116 L 413 119 L 415 122 L 415 127 L 419 129 L 424 129 L 427 131 L 435 132 L 441 135 L 445 136 L 449 135 L 454 129 L 456 129 L 458 128 Z" class="ink"/><path d="M 363 106 L 371 110 L 373 110 L 373 107 L 375 105 L 379 105 L 382 109 L 388 110 L 390 112 L 397 112 L 404 114 L 411 114 L 410 112 L 406 111 L 398 110 L 389 110 L 385 108 L 383 106 L 382 104 L 382 101 L 380 99 L 375 101 L 373 103 Z" class="ink"/><path d="M 389 102 L 392 102 L 396 104 L 401 104 L 405 103 L 407 101 L 398 100 L 398 97 L 394 99 Z" class="ink"/><path d="M 409 96 L 413 98 L 416 98 L 418 101 L 420 101 L 421 102 L 426 102 L 428 104 L 435 104 L 438 99 L 439 96 L 442 95 L 440 96 L 432 97 L 424 97 Z" class="ink"/><path d="M 463 115 L 466 124 L 489 126 L 510 111 L 518 102 L 520 105 L 516 109 L 518 114 L 522 113 L 525 117 L 532 114 L 540 120 L 540 115 L 534 110 L 538 107 L 550 108 L 568 116 L 579 111 L 589 119 L 599 116 L 596 120 L 602 126 L 598 130 L 589 125 L 586 126 L 586 132 L 576 131 L 582 119 L 572 129 L 573 135 L 581 135 L 588 130 L 596 134 L 586 140 L 592 142 L 592 145 L 582 150 L 594 147 L 594 140 L 598 137 L 595 135 L 605 131 L 610 137 L 599 143 L 614 151 L 617 150 L 617 135 L 607 128 L 605 117 L 593 110 L 598 104 L 622 127 L 632 127 L 644 122 L 662 122 L 631 112 L 625 106 L 617 103 L 581 103 L 575 100 L 569 103 L 566 100 L 552 101 L 548 97 L 520 99 L 509 93 L 508 97 L 504 98 L 488 94 L 483 100 L 472 102 L 471 105 L 478 110 L 480 107 L 478 105 L 484 101 L 508 108 L 489 124 L 471 122 Z" class="ink"/><path d="M 444 95 L 446 96 L 451 95 L 456 99 L 458 100 L 466 99 L 467 100 L 469 99 L 466 97 L 461 97 L 456 92 L 454 92 L 449 93 Z" class="ink"/></g></svg>