<svg xmlns="http://www.w3.org/2000/svg" viewBox="0 0 48 48"><path fill="#E4772D" d="M19.7 18.2h6.2c1.4 0 2.5 1.1 2.5 2.5v12.2c0 2.4 1.6 4.6 4.2 4.7 1 0 1.7-.8 1.7-1.8V21.5c0-1.1.9-2 2-2s2 .9 2 2v14.2c0 5.2-4 8.8-9.8 8.4C23.6 44.4 17.2 40.6 17.2 34V20.7c0-1.4 1.1-2.5 2.5-2.5Z"/><path fill="#E4772D" d="M5.8 22C7.4 13.4 14.6 7.2 23.5 7.2S39.6 13.4 41.2 22c.4 2-1.2 3.8-3.4 3.8H9.2C7 25.8 5.4 24 5.8 22Z"/><path fill="none" stroke="#F6F5EF" stroke-linecap="round" stroke-opacity=".72" stroke-width="1.8" d="M11 23.4c3.8-1.6 8-2.4 12.5-2.4s8.7.8 12.5 2.4"/><circle cx="37.8" cy="10.5" r="2.4" fill="#E4772D"/></svg>