<svg xmlns="http://www.w3.org/2000/svg" viewBox="0 0 1024 1024" width="1024" height="1024">
  <defs>
    <style>
      .cream-light { fill: #FFFEFA; }
      .cream { fill: #F6F5EF; }
      .orange { fill: #E4772D; }
      .ink { fill: #19251E; }
    </style>
  </defs>
  <g id="form-light">
    <path class="cream-light" d="M 445 843 L 443 847 L 446 850 L 446 852 L 449 852 L 451 854 L 457 854 L 454 850 L 454 849 L 451 847 L 449 850 L 447 847 L 449 845 Z" />
    <path class="cream-light" d="M 495 838 L 495 840 L 498 840 L 503 845 L 503 848 L 499 852 L 497 852 L 495 851 L 495 853 L 497 855 L 498 857 L 498 860 L 499 862 L 502 865 L 505 865 L 506 864 L 509 864 L 503 857 L 506 856 L 508 857 L 509 860 L 511 861 L 515 861 L 520 860 L 522 859 L 523 856 L 518 856 L 511 850 L 511 848 L 512 846 L 510 844 L 509 841 L 501 842 L 498 839 Z" />
    <path class="cream-light" d="M 438 827 L 437 829 L 438 838 L 442 841 L 444 841 L 443 832 L 442 830 Z" />
    <path class="cream-light" d="M 465 754 L 468 756 L 471 759 L 471 762 L 473 763 L 471 765 L 465 765 L 463 762 L 465 760 L 463 757 Z" />
    <path class="cream-light" d="M 439 751 L 440 749 L 443 749 L 446 750 L 448 752 L 441 753 Z" />
    <path class="cream-light" d="M 446 745 L 448 743 L 455 745 L 457 744 L 459 746 L 457 750 L 453 751 L 449 750 L 449 749 L 447 747 Z" />
    <path class="cream-light" d="M 477 735 L 474 738 L 475 740 L 476 741 L 480 743 L 482 743 L 480 742 L 479 740 L 480 736 Z" />
    <path class="cream-light" d="M 456 733 L 456 735 L 459 736 L 459 738 L 462 737 L 462 733 Z" />
    <path class="cream-light" d="M 485 731 L 485 733 L 488 731 L 489 736 L 490 737 L 491 739 L 492 737 L 493 736 L 493 734 L 491 730 L 487 730 Z" />
    <path class="cream-light" d="M 439 694 L 435 697 L 435 701 L 439 704 L 437 704 L 434 711 L 434 722 L 436 725 L 433 730 L 435 743 L 433 744 L 435 755 L 437 756 L 436 760 L 441 762 L 440 758 L 445 755 L 450 756 L 453 760 L 451 763 L 452 770 L 450 771 L 451 779 L 449 783 L 452 784 L 452 788 L 455 792 L 458 789 L 457 775 L 460 764 L 462 788 L 465 789 L 468 797 L 466 799 L 468 801 L 469 796 L 472 796 L 475 800 L 477 796 L 481 796 L 484 799 L 486 794 L 489 796 L 494 795 L 499 784 L 504 779 L 508 767 L 510 754 L 509 738 L 504 737 L 507 738 L 502 750 L 500 750 L 502 753 L 496 756 L 498 771 L 496 775 L 492 771 L 491 752 L 485 752 L 481 748 L 479 751 L 475 748 L 479 747 L 473 742 L 471 742 L 473 745 L 472 748 L 469 747 L 464 749 L 465 747 L 459 744 L 453 735 L 450 734 L 452 739 L 448 738 L 446 742 L 441 736 L 448 732 L 443 730 L 444 727 L 441 727 L 440 723 L 449 724 L 444 722 L 442 718 L 441 723 L 438 722 L 438 713 L 441 708 L 439 706 L 443 702 L 442 696 Z" />
    <path class="cream-light" d="M 439 675 L 437 676 L 437 681 L 435 687 L 438 692 L 441 689 L 441 681 Z" />
    <path class="cream-light" d="M 440 646 L 437 647 L 437 652 L 436 658 L 438 658 L 439 656 L 439 651 L 441 650 L 440 648 Z" />
    <path class="cream-light" d="M 441 605 L 439 611 L 439 619 L 437 627 L 436 637 L 437 643 L 440 643 L 441 639 L 439 636 L 440 629 L 442 629 L 441 625 L 444 623 L 446 625 L 447 627 L 447 630 L 450 634 L 449 639 L 454 645 L 454 647 L 448 654 L 451 657 L 450 659 L 453 662 L 451 664 L 449 664 L 449 666 L 453 667 L 452 670 L 449 672 L 452 674 L 452 676 L 454 678 L 451 681 L 451 683 L 448 686 L 446 685 L 448 688 L 449 692 L 456 694 L 457 685 L 455 677 L 458 677 L 456 673 L 456 648 L 457 646 L 456 642 L 457 636 L 456 634 L 452 632 L 450 616 L 446 610 Z" />
    <path class="cream-light" d="M 483 603 L 481 607 L 484 610 L 487 618 L 486 623 L 489 626 L 487 629 L 487 635 L 485 637 L 486 639 L 483 646 L 484 650 L 482 651 L 483 653 L 487 653 L 491 657 L 489 659 L 486 657 L 481 661 L 477 659 L 480 657 L 478 646 L 479 628 L 477 626 L 475 628 L 475 647 L 473 666 L 474 678 L 472 687 L 475 699 L 478 697 L 478 690 L 476 688 L 477 686 L 476 682 L 478 679 L 475 676 L 477 673 L 476 669 L 480 666 L 477 663 L 479 661 L 486 660 L 490 665 L 490 668 L 488 669 L 489 672 L 488 676 L 490 677 L 489 685 L 486 686 L 490 694 L 486 695 L 484 697 L 485 702 L 489 703 L 491 706 L 489 709 L 490 715 L 487 721 L 490 723 L 489 726 L 495 730 L 497 727 L 499 710 L 498 683 L 496 684 L 494 679 L 497 677 L 498 680 L 497 654 L 491 617 L 485 603 Z" />
    <path class="cream-light" d="M 444 447 L 446 449 L 449 448 L 453 444 L 455 443 L 458 441 L 452 442 L 448 440 L 443 442 L 445 440 L 447 443 L 444 445 Z" />
    <path class="cream-light" d="M 486 435 L 489 438 L 489 441 L 486 443 L 484 441 L 483 438 L 484 436 Z" />
    <path class="cream-light" d="M 502 428 L 499 431 L 494 431 L 490 425 L 491 428 L 489 430 L 489 431 L 486 434 L 482 435 L 481 439 L 477 440 L 476 442 L 475 446 L 473 446 L 468 451 L 471 455 L 469 457 L 465 458 L 463 460 L 463 463 L 464 465 L 466 466 L 466 464 L 468 462 L 473 461 L 474 458 L 476 456 L 478 455 L 482 454 L 485 452 L 486 449 L 493 450 L 496 453 L 496 451 L 495 450 L 496 447 L 495 439 L 500 434 L 502 434 Z" />
    <path class="cream-light" d="M 495 386 L 493 392 L 492 392 L 491 393 L 490 395 L 487 394 L 486 396 L 486 398 L 487 399 L 487 402 L 485 404 L 480 403 L 480 402 L 477 400 L 470 400 L 468 402 L 465 402 L 463 400 L 463 397 L 464 395 L 466 393 L 469 392 L 475 386 L 477 383 L 480 384 L 481 385 L 483 385 L 482 381 L 484 379 L 489 379 L 489 384 L 493 383 Z" />
    <path class="cream-light" d="M 472 372 L 474 372 L 476 374 L 476 376 L 473 378 L 470 374 Z" />
    <path class="cream-light" d="M 505 347 L 501 347 L 498 344 L 493 344 L 490 346 L 483 342 L 479 343 L 477 346 L 473 339 L 470 338 L 466 341 L 464 339 L 457 338 L 455 340 L 457 347 L 452 350 L 451 354 L 449 356 L 447 354 L 447 350 L 443 352 L 442 356 L 444 359 L 442 361 L 440 360 L 440 367 L 444 366 L 449 360 L 452 360 L 455 363 L 460 355 L 464 357 L 471 355 L 475 350 L 479 357 L 476 359 L 473 357 L 472 359 L 468 359 L 466 364 L 460 368 L 465 372 L 464 377 L 459 380 L 455 380 L 452 377 L 450 387 L 448 389 L 442 388 L 441 392 L 446 392 L 446 394 L 441 398 L 442 404 L 440 406 L 440 412 L 448 407 L 451 408 L 454 406 L 453 401 L 456 399 L 459 404 L 464 404 L 472 411 L 469 416 L 465 414 L 456 421 L 461 422 L 461 425 L 465 427 L 460 431 L 456 426 L 453 427 L 447 437 L 452 434 L 460 437 L 465 433 L 466 430 L 469 431 L 469 426 L 471 424 L 475 424 L 477 422 L 479 423 L 482 419 L 480 414 L 483 412 L 486 417 L 501 426 L 502 421 L 500 418 L 494 417 L 491 412 L 492 401 L 490 399 L 491 394 L 499 401 L 502 400 L 503 381 L 501 376 L 497 376 L 495 374 L 494 365 L 499 361 L 501 354 L 505 350 Z" />
    <path class="cream-light" d="M 416 235 L 415 233 L 412 232 L 411 233 L 407 234 L 407 239 L 404 239 L 407 240 L 412 238 Z" />
    <path class="cream-light" d="M 354 232 L 362 236 L 372 237 L 372 235 L 370 235 L 368 233 L 368 231 L 366 230 L 363 229 L 359 229 Z" />
    <path class="cream-light" d="M 427 138 L 419 138 L 419 136 L 399 138 L 393 142 L 396 140 L 402 144 L 388 152 L 386 156 L 384 156 L 378 163 L 371 167 L 370 171 L 365 171 L 365 175 L 361 176 L 360 182 L 356 180 L 342 190 L 341 186 L 348 179 L 351 171 L 335 188 L 321 210 L 318 221 L 320 216 L 324 213 L 326 217 L 328 216 L 332 208 L 338 204 L 343 197 L 347 199 L 344 208 L 340 211 L 339 215 L 334 218 L 335 220 L 332 225 L 324 229 L 323 235 L 327 229 L 342 220 L 347 206 L 351 204 L 352 198 L 358 193 L 358 191 L 361 188 L 367 186 L 369 181 L 376 178 L 377 173 L 381 174 L 382 169 L 386 170 L 394 168 L 396 164 L 400 163 L 404 158 L 414 153 L 414 151 L 427 140 Z" />
  </g>
  <g id="form-shade">
    <path class="cream" d="M 473 910 L 476 913 L 475 917 L 472 916 L 472 915 L 470 913 Z" />
    <path class="cream" d="M 465 903 L 465 905 L 468 910 L 468 914 L 471 917 L 469 919 L 471 921 L 471 924 L 474 927 L 477 929 L 478 929 L 479 930 L 479 931 L 486 932 L 488 930 L 488 927 L 485 923 L 484 920 L 484 915 L 471 902 L 469 902 Z" />
    <path class="cream" d="M 444 843 L 446 842 L 450 845 L 449 849 L 452 846 L 455 849 L 455 850 L 457 855 L 451 855 L 449 853 L 445 852 L 445 850 L 442 846 L 444 844 Z" />
    <path class="cream" d="M 496 837 L 498 838 L 501 841 L 509 840 L 511 842 L 511 844 L 513 851 L 518 855 L 524 856 L 524 858 L 522 860 L 520 861 L 515 862 L 513 863 L 509 861 L 508 858 L 506 857 L 504 857 L 509 865 L 505 866 L 502 866 L 498 862 L 497 860 L 497 857 L 494 853 L 497 851 L 499 851 L 501 852 L 501 849 L 502 848 L 502 845 L 498 841 L 494 840 Z" />
    <path class="cream" d="M 439 826 L 443 830 L 444 832 L 444 842 L 441 841 L 440 840 L 438 839 L 436 837 L 436 829 L 437 827 Z" />
    <path class="cream" d="M 435 774 L 436 785 L 435 792 L 433 790 L 432 785 Z" />
    <path class="cream" d="M 621 767 L 609 783 L 605 790 L 602 802 L 598 813 L 595 818 L 594 826 L 591 834 L 591 838 L 589 841 L 589 851 L 585 859 L 584 865 L 586 865 L 598 855 L 608 833 L 608 829 L 604 838 L 601 842 L 597 842 L 606 823 L 609 813 L 610 805 L 612 801 L 615 798 L 613 810 L 616 811 L 615 817 L 617 814 L 617 811 L 619 806 L 622 806 L 622 810 L 620 817 L 620 825 L 619 826 L 620 828 L 621 826 L 623 815 L 626 809 L 627 804 L 627 799 L 624 795 L 624 792 L 622 790 Z" />
    <path class="cream" d="M 424 761 L 425 770 L 422 774 L 421 768 Z" />
    <path class="cream" d="M 464 755 L 464 757 L 466 760 L 465 764 L 472 763 L 470 762 L 470 759 L 468 757 L 467 757 Z" />
    <path class="cream" d="M 426 752 L 430 752 L 431 757 L 431 759 L 430 760 L 429 764 L 429 769 L 430 779 L 432 788 L 429 791 L 428 788 L 426 776 Z" />
    <path class="cream" d="M 447 744 L 448 747 L 450 750 L 453 750 L 454 749 L 457 749 L 457 745 L 451 746 Z" />
    <path class="cream" d="M 473 738 L 477 734 L 480 735 L 482 738 L 480 740 L 483 743 L 480 744 L 476 742 L 474 740 Z" />
    <path class="cream" d="M 456 732 L 462 732 L 464 735 L 463 737 L 461 739 L 458 738 L 458 736 L 455 735 Z" />
    <path class="cream" d="M 510 733 L 507 735 L 505 734 L 503 732 L 508 730 L 509 730 Z" />
    <path class="cream" d="M 487 729 L 491 729 L 493 731 L 494 734 L 494 736 L 493 738 L 491 740 L 489 738 L 488 736 L 488 732 L 484 733 L 485 730 Z" />
    <path class="cream" d="M 424 723 L 426 725 L 426 728 L 424 730 L 421 740 L 421 730 L 422 725 Z" />
    <path class="cream" d="M 473 713 L 475 716 L 474 718 L 472 720 L 469 719 L 469 717 L 471 715 L 471 714 Z" />
    <path class="cream" d="M 475 701 L 477 703 L 476 705 L 479 708 L 476 711 L 474 709 L 473 706 L 473 703 Z" />
    <path class="cream" d="M 439 693 L 442 695 L 444 701 L 440 706 L 442 709 L 439 713 L 439 722 L 441 722 L 441 718 L 444 718 L 444 721 L 449 723 L 448 726 L 440 724 L 445 727 L 444 730 L 448 732 L 442 736 L 446 741 L 448 737 L 452 737 L 451 733 L 460 744 L 463 744 L 465 749 L 469 746 L 472 747 L 470 744 L 471 741 L 478 744 L 479 748 L 476 748 L 479 750 L 482 747 L 484 750 L 494 749 L 496 754 L 501 753 L 500 749 L 502 749 L 505 739 L 507 737 L 510 738 L 510 762 L 505 779 L 499 786 L 500 789 L 504 783 L 509 782 L 501 794 L 500 812 L 496 817 L 496 799 L 498 790 L 496 790 L 496 794 L 492 797 L 486 795 L 482 799 L 481 797 L 477 797 L 475 801 L 473 798 L 469 797 L 470 800 L 468 802 L 465 799 L 467 794 L 463 789 L 462 795 L 464 797 L 467 811 L 465 816 L 459 801 L 460 798 L 458 791 L 455 793 L 451 788 L 451 784 L 448 783 L 450 779 L 449 772 L 452 767 L 450 765 L 452 759 L 450 757 L 442 757 L 440 763 L 435 759 L 436 756 L 434 755 L 432 744 L 440 737 L 435 741 L 433 739 L 432 729 L 435 724 L 433 722 L 433 711 L 439 702 L 434 701 L 434 697 Z" />
    <path class="cream" d="M 439 674 L 441 676 L 442 682 L 442 689 L 437 693 L 435 691 L 436 689 L 435 682 L 436 676 Z" />
    <path class="cream" d="M 441 646 L 441 648 L 442 650 L 440 651 L 439 654 L 440 656 L 439 658 L 435 658 L 435 649 L 436 647 L 438 645 Z" />
    <path class="cream" d="M 599 626 L 597 635 L 595 635 L 596 644 L 599 639 L 599 650 L 601 659 L 598 662 L 596 649 L 596 660 L 598 665 L 597 678 L 599 681 L 598 685 L 599 712 L 602 717 L 607 733 L 609 743 L 610 767 L 612 763 L 611 741 L 606 703 L 604 697 L 607 695 L 615 735 L 616 753 L 617 745 L 616 741 L 618 739 L 618 731 L 613 697 L 606 672 Z" />
    <path class="cream" d="M 477 625 L 480 628 L 480 642 L 479 646 L 481 657 L 478 659 L 480 661 L 479 665 L 480 665 L 480 668 L 477 670 L 478 673 L 478 675 L 476 676 L 479 680 L 477 682 L 477 689 L 479 690 L 479 697 L 477 699 L 475 700 L 473 698 L 471 685 L 473 677 L 473 670 L 472 665 L 474 647 L 474 628 Z" />
    <path class="cream" d="M 441 604 L 443 607 L 447 610 L 451 616 L 453 632 L 455 632 L 458 636 L 457 642 L 457 673 L 458 678 L 455 679 L 457 680 L 458 687 L 457 694 L 454 696 L 448 692 L 446 684 L 448 685 L 450 683 L 450 681 L 453 678 L 451 676 L 451 673 L 448 671 L 450 669 L 455 669 L 449 667 L 449 663 L 452 662 L 449 659 L 450 657 L 447 654 L 451 650 L 453 647 L 453 645 L 448 638 L 449 633 L 446 630 L 446 627 L 445 625 L 442 625 L 442 630 L 440 630 L 439 635 L 441 641 L 440 644 L 437 644 L 435 642 L 436 627 L 438 619 L 438 611 L 439 606 Z" />
    <path class="cream" d="M 483 602 L 485 602 L 487 604 L 488 609 L 490 611 L 490 614 L 492 617 L 492 623 L 494 626 L 496 647 L 498 654 L 499 669 L 498 681 L 495 677 L 496 680 L 495 686 L 497 688 L 495 686 L 495 684 L 498 682 L 500 684 L 500 689 L 498 690 L 500 693 L 500 710 L 498 727 L 495 731 L 489 727 L 489 723 L 486 720 L 489 715 L 488 712 L 489 704 L 486 704 L 483 700 L 483 697 L 486 694 L 490 693 L 488 689 L 485 686 L 489 684 L 488 681 L 489 677 L 487 676 L 488 672 L 487 670 L 489 668 L 489 665 L 488 662 L 486 661 L 483 662 L 480 661 L 486 656 L 490 657 L 487 654 L 482 653 L 481 651 L 483 650 L 484 648 L 482 646 L 485 639 L 484 637 L 486 635 L 486 629 L 488 626 L 484 621 L 486 618 L 483 610 L 480 607 L 480 605 Z" />
    <path class="cream" d="M 509 575 L 510 577 L 512 578 L 515 578 L 516 580 L 521 578 L 520 576 L 518 574 L 513 574 L 512 575 Z" />
    <path class="cream" d="M 429 565 L 412 677 L 414 772 L 424 795 L 447 803 L 461 823 L 482 821 L 471 829 L 456 828 L 433 808 L 413 803 L 421 824 L 422 842 L 446 870 L 450 864 L 479 886 L 482 877 L 472 871 L 466 857 L 483 854 L 508 886 L 519 878 L 546 878 L 546 883 L 525 894 L 525 922 L 511 923 L 508 931 L 492 931 L 521 939 L 527 935 L 525 927 L 550 905 L 540 896 L 543 888 L 562 880 L 566 872 L 547 872 L 554 859 L 546 856 L 548 849 L 555 854 L 581 832 L 586 821 L 569 826 L 556 818 L 532 843 L 511 773 L 514 769 L 525 775 L 546 816 L 569 811 L 558 804 L 569 788 L 570 770 L 574 769 L 575 778 L 573 748 L 576 743 L 579 765 L 585 737 L 572 643 L 571 674 L 566 667 L 560 601 L 557 621 L 547 575 L 524 586 L 494 570 L 504 567 L 466 573 Z" />
    <path class="cream" d="M 466 554 L 475 555 L 480 555 L 484 552 L 487 551 L 481 552 L 478 549 L 475 551 L 469 553 L 467 551 Z" />
    <path class="cream" d="M 559 549 L 567 550 L 567 548 L 565 546 L 562 546 L 560 547 Z" />
    <path class="cream" d="M 467 515 L 465 515 L 463 516 L 462 518 L 462 529 L 463 526 L 465 523 L 464 520 L 467 517 Z" />
    <path class="cream" d="M 471 522 L 473 526 L 477 527 L 476 523 L 478 521 L 480 523 L 480 531 L 482 534 L 483 540 L 485 532 L 487 530 L 489 530 L 492 532 L 495 530 L 497 532 L 497 534 L 500 530 L 508 530 L 512 531 L 512 534 L 516 538 L 521 539 L 523 537 L 523 530 L 524 528 L 528 527 L 529 529 L 532 524 L 535 536 L 538 536 L 541 534 L 544 535 L 549 534 L 555 531 L 561 530 L 563 529 L 564 527 L 552 526 L 548 522 L 546 528 L 544 529 L 538 521 L 537 523 L 535 523 L 532 521 L 529 514 L 529 511 L 527 509 L 528 517 L 527 521 L 524 520 L 523 516 L 521 517 L 519 526 L 515 523 L 513 510 L 511 510 L 509 512 L 500 513 L 492 517 L 492 512 L 490 507 L 488 507 L 486 510 L 482 513 L 479 514 L 476 513 L 474 514 L 473 520 Z" />
    <path class="cream" d="M 427 491 L 425 491 L 420 495 L 417 499 L 413 499 L 411 495 L 411 493 L 415 489 L 415 487 L 417 484 L 409 489 L 406 488 L 404 489 L 403 491 L 399 489 L 405 482 L 406 480 L 406 478 L 404 479 L 402 479 L 400 482 L 397 483 L 390 490 L 388 494 L 389 496 L 387 498 L 387 499 L 377 507 L 374 508 L 371 511 L 369 515 L 375 514 L 383 509 L 387 509 L 394 506 L 393 511 L 398 512 L 397 515 L 400 515 L 402 513 L 404 516 L 406 516 L 408 512 L 417 516 L 419 516 L 421 514 L 420 510 L 421 508 L 424 508 L 423 510 L 427 509 L 428 500 L 425 502 L 423 499 Z" />
    <path class="cream" d="M 501 477 L 484 477 L 482 478 L 482 481 L 484 484 L 481 487 L 479 486 L 477 488 L 473 487 L 473 485 L 471 485 L 470 487 L 470 489 L 473 491 L 476 490 L 478 492 L 481 493 L 483 491 L 486 493 L 489 492 L 488 483 L 491 481 L 495 484 L 495 482 L 497 480 L 499 480 Z" />
    <path class="cream" d="M 442 482 L 446 480 L 452 481 L 451 479 L 449 479 L 446 476 L 444 475 Z" />
    <path class="cream" d="M 533 462 L 536 460 L 536 461 L 539 461 L 542 463 L 538 466 L 535 464 Z" />
    <path class="cream" d="M 508 459 L 513 461 L 513 463 L 511 465 L 509 465 L 506 461 Z" />
    <path class="cream" d="M 479 459 L 481 459 L 483 461 L 483 463 L 480 465 L 478 463 Z" />
    <path class="cream" d="M 558 447 L 560 449 L 561 452 L 562 458 L 562 460 L 559 462 L 553 458 L 550 455 L 550 453 L 551 451 L 554 451 L 556 454 L 556 449 Z" />
    <path class="cream" d="M 581 447 L 581 450 L 582 451 L 582 456 L 584 456 L 586 454 L 587 454 L 589 452 L 585 448 L 583 448 Z" />
    <path class="cream" d="M 540 443 L 543 446 L 543 448 L 540 451 L 538 451 L 535 447 L 537 445 L 538 445 Z" />
    <path class="cream" d="M 434 443 L 436 445 L 439 446 L 439 448 L 437 450 L 435 450 L 432 447 L 432 445 Z" />
    <path class="cream" d="M 519 434 L 522 435 L 523 437 L 523 440 L 521 442 L 517 442 L 514 439 L 516 437 L 518 437 Z" />
    <path class="cream" d="M 557 432 L 559 434 L 559 439 L 557 441 L 555 442 L 553 442 L 551 440 L 552 437 L 554 437 L 553 434 L 555 432 Z" />
    <path class="cream" d="M 589 431 L 591 433 L 591 437 L 590 439 L 588 441 L 586 441 L 583 437 L 585 435 L 586 435 L 587 434 L 587 433 Z" />
    <path class="cream" d="M 538 429 L 540 429 L 542 431 L 542 433 L 540 435 L 538 435 L 536 433 L 536 431 Z" />
    <path class="cream" d="M 582 427 L 585 431 L 583 433 L 580 434 L 578 431 Z" />
    <path class="cream" d="M 566 424 L 569 424 L 572 427 L 572 433 L 570 435 L 568 435 L 565 432 L 569 429 L 567 428 L 565 426 Z" />
    <path class="cream" d="M 435 420 L 437 422 L 438 427 L 436 429 L 432 425 L 432 423 Z" />
    <path class="cream" d="M 554 419 L 556 421 L 556 423 L 554 425 L 552 425 L 550 422 Z" />
    <path class="cream" d="M 579 420 L 579 423 L 577 425 L 574 425 L 572 423 L 572 420 L 576 419 Z" />
    <path class="cream" d="M 567 419 L 567 422 L 565 424 L 562 424 L 560 422 L 561 419 L 564 418 Z" />
    <path class="cream" d="M 506 420 L 508 418 L 513 421 L 511 423 L 508 423 Z" />
    <path class="cream" d="M 588 416 L 591 419 L 591 424 L 589 426 L 585 426 L 583 423 L 585 421 L 587 421 L 586 418 Z" />
    <path class="cream" d="M 581 410 L 584 410 L 586 412 L 586 414 L 584 416 L 581 416 L 579 414 L 579 412 Z" />
    <path class="cream" d="M 432 414 L 433 409 L 435 409 L 438 411 L 440 413 L 437 416 L 434 416 Z" />
    <path class="cream" d="M 565 407 L 567 408 L 569 411 L 565 414 L 562 411 L 562 409 Z" />
    <path class="cream" d="M 526 407 L 528 409 L 532 410 L 532 412 L 530 414 L 527 414 L 525 412 L 524 409 Z" />
    <path class="cream" d="M 559 406 L 559 410 L 558 412 L 553 413 L 551 411 L 552 408 L 555 408 L 556 405 Z" />
    <path class="cream" d="M 580 403 L 580 407 L 578 409 L 575 409 L 573 407 L 572 404 Z" />
    <path class="cream" d="M 589 399 L 591 401 L 591 406 L 587 409 L 585 407 L 585 405 L 587 403 Z" />
    <path class="cream" d="M 569 394 L 571 396 L 571 398 L 568 401 L 565 402 L 562 398 L 564 396 L 566 396 Z" />
    <path class="cream" d="M 553 392 L 555 394 L 555 397 L 552 400 L 550 400 L 547 394 L 551 395 Z" />
    <path class="cream" d="M 581 391 L 583 391 L 586 394 L 586 398 L 584 400 L 581 400 L 579 397 L 582 395 L 580 394 Z" />
    <path class="cream" d="M 556 385 L 560 384 L 560 386 L 562 385 L 564 387 L 564 389 L 562 391 L 558 391 L 556 389 Z" />
    <path class="cream" d="M 579 371 L 581 373 L 581 376 L 578 378 L 575 374 Z" />
    <path class="cream" d="M 540 365 L 542 367 L 542 369 L 538 372 L 536 370 L 536 368 Z" />
    <path class="cream" d="M 583 362 L 585 364 L 585 366 L 582 369 L 579 365 Z" />
    <path class="cream" d="M 575 358 L 577 356 L 579 356 L 581 358 L 580 361 L 577 361 Z" />
    <path class="cream" d="M 569 353 L 571 353 L 573 355 L 573 357 L 570 359 L 568 357 Z" />
    <path class="cream" d="M 582 349 L 584 349 L 587 353 L 585 355 L 583 355 L 580 351 Z" />
    <path class="cream" d="M 563 343 L 566 347 L 564 349 L 562 349 L 560 347 L 560 345 Z" />
    <path class="cream" d="M 655 340 L 657 338 L 660 338 L 662 339 L 663 341 L 661 343 L 658 343 Z" />
    <path class="cream" d="M 457 337 L 471 337 L 477 345 L 483 341 L 491 345 L 493 343 L 503 344 L 506 350 L 495 365 L 496 374 L 502 376 L 504 381 L 503 400 L 499 402 L 490 393 L 493 391 L 487 379 L 482 382 L 484 385 L 477 384 L 469 396 L 464 397 L 465 401 L 471 399 L 474 401 L 481 400 L 486 394 L 491 395 L 493 404 L 498 406 L 498 409 L 492 410 L 494 416 L 499 416 L 503 421 L 502 435 L 497 438 L 496 443 L 500 445 L 504 442 L 505 446 L 500 449 L 496 448 L 497 453 L 492 456 L 490 451 L 486 450 L 475 458 L 468 468 L 462 463 L 465 457 L 463 452 L 475 445 L 474 437 L 481 438 L 482 434 L 488 431 L 492 423 L 488 418 L 473 426 L 476 429 L 474 431 L 466 431 L 457 444 L 447 449 L 451 454 L 448 457 L 443 455 L 445 443 L 440 443 L 437 439 L 440 437 L 442 440 L 449 440 L 442 434 L 443 430 L 449 431 L 456 422 L 452 423 L 450 419 L 453 417 L 456 419 L 467 413 L 464 405 L 457 405 L 442 413 L 439 412 L 437 403 L 442 394 L 440 392 L 442 387 L 448 388 L 451 377 L 459 379 L 460 373 L 463 377 L 463 371 L 459 368 L 475 354 L 473 350 L 470 357 L 460 356 L 455 364 L 450 364 L 449 361 L 443 368 L 440 368 L 438 361 L 445 349 L 448 350 L 449 355 Z" />
    <path class="cream" d="M 580 324 L 582 326 L 581 329 L 580 329 L 579 331 L 580 335 L 577 337 L 575 335 L 575 334 L 573 332 L 572 332 L 570 329 L 572 327 L 574 327 L 575 328 L 577 328 L 577 326 Z" />
    <path class="cream" d="M 575 320 L 576 323 L 574 325 L 572 325 L 570 323 L 570 321 L 574 320 Z" />
    <path class="cream" d="M 565 319 L 567 326 L 564 328 L 562 321 Z" />
    <path class="cream" d="M 595 314 L 590 315 L 588 317 L 586 318 L 589 321 L 589 319 L 591 317 L 594 318 Z" />
    <path class="cream" d="M 552 311 L 557 309 L 558 311 L 558 313 L 561 315 L 561 317 L 559 319 L 556 316 L 556 314 L 552 313 Z" />
    <path class="cream" d="M 254 308 L 254 311 L 255 312 L 255 317 L 258 323 L 261 325 L 261 315 L 266 310 L 267 308 L 264 310 L 258 313 L 256 311 L 256 310 Z" />
    <path class="cream" d="M 549 305 L 552 309 L 549 312 L 547 312 L 545 309 Z" />
    <path class="cream" d="M 428 309 L 430 334 L 426 375 L 428 386 L 437 395 L 431 396 L 428 403 L 431 409 L 428 412 L 430 424 L 427 427 L 429 431 L 427 442 L 438 457 L 475 475 L 478 472 L 503 474 L 521 469 L 546 470 L 567 464 L 564 458 L 568 455 L 564 440 L 568 437 L 572 444 L 572 462 L 578 459 L 575 455 L 578 452 L 577 444 L 573 440 L 575 435 L 581 437 L 581 444 L 589 446 L 590 442 L 592 449 L 592 434 L 596 427 L 593 424 L 592 408 L 596 398 L 593 376 L 595 369 L 592 360 L 596 346 L 592 343 L 596 341 L 596 337 L 590 337 L 591 334 L 597 334 L 598 330 L 597 328 L 591 333 L 590 329 L 598 325 L 599 320 L 586 332 L 589 341 L 583 345 L 578 341 L 582 339 L 583 322 L 579 319 L 577 321 L 574 306 L 572 309 L 574 317 L 564 317 L 560 313 L 563 302 L 559 301 L 560 305 L 555 307 L 549 302 L 542 306 L 541 301 L 538 306 L 532 303 L 517 303 L 516 306 L 511 301 L 509 306 L 506 301 L 500 301 L 499 306 L 497 301 L 481 304 L 477 300 L 467 304 L 462 300 L 459 304 L 457 301 L 449 300 L 436 310 L 435 306 L 440 303 L 434 303 L 434 306 Z" />
    <path class="cream" d="M 671 286 L 673 287 L 679 287 L 683 288 L 686 290 L 689 290 L 687 287 L 683 285 L 675 286 L 674 285 Z" />
    <path class="cream" d="M 761 319 L 756 313 L 738 307 L 675 300 L 605 276 L 489 284 L 380 280 L 347 298 L 296 300 L 278 306 L 265 316 L 264 322 L 269 330 L 299 340 L 329 340 L 400 351 L 415 344 L 425 347 L 424 333 L 403 322 L 402 317 L 400 323 L 395 319 L 380 323 L 377 316 L 372 316 L 388 312 L 367 312 L 367 308 L 391 299 L 430 294 L 534 292 L 647 306 L 665 311 L 666 320 L 687 327 L 647 332 L 653 338 L 651 341 L 642 331 L 639 336 L 621 332 L 608 342 L 603 352 L 627 354 L 678 343 L 732 344 L 752 333 Z" />
    <path class="cream" d="M 408 264 L 411 262 L 414 265 L 414 266 L 416 268 L 413 269 L 411 268 L 409 266 Z" />
    <path class="cream" d="M 351 259 L 353 259 L 355 261 L 355 265 L 352 267 L 351 265 L 348 263 L 349 261 Z" />
    <path class="cream" d="M 736 240 L 738 242 L 739 245 L 739 248 L 742 253 L 742 257 L 744 262 L 745 266 L 746 268 L 748 270 L 749 273 L 749 275 L 752 279 L 754 278 L 753 275 L 754 273 L 753 269 L 751 264 L 749 262 L 748 256 L 746 254 L 745 249 L 743 244 L 740 239 Z" />
    <path class="cream" d="M 416 233 L 417 235 L 415 237 L 412 239 L 407 241 L 405 241 L 403 239 L 407 238 L 406 234 L 408 232 L 411 232 L 412 231 L 414 231 Z" />
    <path class="cream" d="M 353 232 L 355 230 L 359 228 L 363 228 L 366 229 L 368 230 L 370 234 L 373 235 L 371 238 L 362 237 L 355 234 Z" />
    <path class="cream" d="M 646 215 L 646 218 L 647 220 L 649 222 L 649 225 L 651 231 L 653 232 L 654 236 L 655 234 L 652 231 L 652 227 L 651 224 L 649 222 L 650 219 L 648 216 Z" />
    <path class="cream" d="M 711 178 L 713 181 L 714 181 L 727 194 L 731 199 L 729 196 L 729 195 L 726 191 L 716 181 Z" />
    <path class="cream" d="M 314 171 L 315 173 L 311 177 L 309 178 L 308 176 L 312 172 Z" />
    <path class="cream" d="M 524 157 L 527 155 L 529 157 L 529 161 L 531 163 L 532 169 L 531 171 L 533 171 L 535 173 L 541 172 L 541 170 L 543 168 L 548 166 L 548 165 L 550 163 L 556 162 L 559 163 L 561 167 L 563 169 L 565 169 L 567 172 L 565 173 L 565 177 L 563 179 L 565 181 L 569 180 L 570 181 L 574 181 L 576 183 L 574 185 L 574 187 L 578 189 L 577 193 L 573 196 L 573 197 L 569 198 L 568 202 L 563 203 L 563 204 L 560 206 L 558 205 L 555 202 L 554 199 L 552 197 L 549 197 L 547 196 L 547 202 L 544 210 L 541 213 L 537 213 L 534 210 L 531 209 L 531 204 L 533 202 L 533 196 L 531 192 L 530 188 L 531 183 L 530 179 L 524 167 Z" />
    <path class="cream" d="M 374 155 L 371 158 L 366 162 L 364 163 L 362 161 L 364 159 L 370 154 Z" />
    <path class="cream" d="M 383 145 L 385 148 L 381 151 L 379 152 L 377 150 L 379 148 L 381 148 Z" />
    <path class="cream" d="M 428 138 L 428 140 L 419 147 L 414 154 L 403 160 L 399 165 L 395 166 L 394 169 L 386 171 L 382 170 L 381 175 L 377 174 L 376 179 L 370 182 L 368 186 L 361 189 L 358 192 L 358 194 L 353 198 L 351 205 L 348 206 L 343 220 L 336 226 L 333 226 L 327 230 L 323 236 L 322 232 L 323 229 L 326 226 L 332 224 L 334 220 L 333 218 L 338 215 L 339 211 L 343 208 L 346 199 L 345 197 L 343 198 L 343 200 L 333 208 L 329 216 L 325 217 L 323 214 L 317 220 L 320 210 L 334 188 L 350 171 L 353 173 L 349 179 L 343 184 L 342 189 L 357 179 L 361 181 L 361 175 L 364 175 L 363 173 L 364 171 L 367 169 L 370 170 L 370 167 L 378 162 L 384 155 L 386 155 L 388 151 L 402 142 L 397 142 L 395 140 L 399 137 L 406 137 L 411 135 L 420 136 L 419 139 L 416 141 L 420 138 L 425 137 Z" />
    <path class="cream" d="M 460 113 L 462 113 L 464 115 L 465 117 L 463 119 L 461 119 L 458 115 Z" />
    <path class="cream" d="M 430 106 L 423 113 L 417 111 L 418 109 L 420 107 L 423 107 L 426 105 L 428 104 Z" />
    <path class="cream" d="M 451 98 L 449 98 L 444 101 L 437 103 L 434 102 L 436 100 L 441 97 L 444 96 L 448 95 Z" />
    <path class="cream" d="M 557 91 L 561 92 L 562 93 L 566 93 L 571 95 L 577 95 L 573 93 L 564 90 L 560 90 Z" />
    <path class="cream" d="M 469 90 L 466 93 L 463 94 L 459 93 L 463 89 L 465 88 L 467 88 Z" />
    <path class="cream" d="M 650 195 L 623 162 L 593 158 L 595 144 L 599 144 L 594 130 L 581 130 L 571 114 L 553 111 L 558 107 L 516 95 L 522 88 L 539 87 L 525 86 L 521 80 L 473 85 L 501 81 L 519 85 L 465 87 L 430 96 L 394 113 L 311 169 L 280 205 L 288 200 L 267 230 L 265 238 L 271 238 L 261 259 L 260 277 L 270 290 L 278 283 L 286 285 L 300 277 L 321 276 L 328 269 L 343 271 L 349 266 L 352 280 L 390 270 L 387 277 L 457 276 L 417 269 L 479 268 L 463 264 L 458 257 L 413 254 L 430 250 L 450 254 L 458 241 L 486 240 L 494 241 L 492 251 L 463 252 L 461 256 L 501 257 L 506 253 L 514 256 L 510 258 L 514 262 L 517 258 L 542 257 L 549 249 L 568 249 L 574 243 L 578 246 L 587 226 L 604 225 L 603 204 L 608 206 L 617 192 L 628 190 L 645 204 Z" />
  </g>
  <g id="accent">
    <path class="orange" d="M 524 892 L 522 893 L 520 893 L 518 895 L 517 897 L 519 910 L 517 912 L 515 912 L 513 910 L 510 909 L 504 911 L 502 909 L 500 912 L 498 911 L 497 914 L 491 914 L 490 917 L 487 920 L 486 917 L 485 920 L 488 928 L 492 930 L 493 928 L 497 928 L 502 930 L 508 930 L 510 928 L 511 926 L 510 923 L 513 921 L 517 924 L 519 924 L 524 922 L 526 919 L 526 915 L 522 908 L 527 903 L 527 899 L 526 896 L 524 894 Z" />
    <path class="orange" d="M 555 865 L 552 865 L 548 869 L 548 872 L 550 874 L 556 873 L 557 867 Z" />
    <path class="orange" d="M 579 857 L 577 858 L 575 858 L 571 862 L 570 865 L 567 868 L 567 870 L 569 869 L 574 863 L 575 863 L 579 859 Z" />
    <path class="orange" d="M 552 848 L 549 849 L 547 853 L 548 857 L 550 858 L 554 856 L 552 854 L 553 851 L 552 850 Z" />
    <path class="orange" d="M 592 816 L 589 818 L 587 821 L 587 823 L 585 825 L 584 830 L 581 833 L 581 836 L 579 838 L 580 846 L 581 845 L 584 850 L 585 848 L 585 846 L 588 843 L 590 838 L 590 834 L 593 826 L 594 822 L 594 817 Z" />
    <path class="orange" d="M 532 796 L 534 797 L 535 798 L 538 805 L 539 810 L 537 812 L 534 809 L 534 806 L 532 804 L 531 801 L 530 803 L 531 810 L 535 813 L 536 815 L 536 818 L 537 820 L 539 821 L 541 824 L 538 827 L 540 832 L 540 830 L 542 828 L 543 826 L 543 822 L 546 819 L 546 817 L 545 815 L 543 813 L 542 813 L 540 811 L 539 809 L 538 805 L 537 798 L 536 796 Z" />
    <path class="orange" d="M 593 771 L 591 772 L 591 775 L 589 777 L 585 778 L 585 780 L 583 782 L 582 788 L 578 789 L 578 794 L 576 797 L 576 803 L 575 806 L 572 809 L 570 809 L 568 807 L 567 804 L 568 800 L 567 798 L 564 796 L 562 798 L 562 804 L 560 803 L 560 806 L 566 809 L 573 810 L 579 809 L 581 807 L 584 806 L 589 806 L 588 796 L 586 792 L 587 789 L 586 788 L 586 785 L 588 779 L 591 779 L 591 776 L 593 773 Z" />
    <path class="orange" d="M 624 768 L 623 777 L 623 790 L 625 792 L 625 795 L 626 796 L 627 798 L 629 787 L 629 785 L 627 783 L 626 778 L 626 774 Z" />
    <path class="orange" d="M 595 702 L 597 704 L 597 706 L 592 708 L 591 706 L 591 704 L 593 702 Z" />
    <path class="orange" d="M 592 636 L 591 650 L 594 671 L 593 681 L 591 678 L 588 668 L 586 673 L 586 679 L 585 681 L 582 683 L 582 685 L 580 687 L 581 690 L 585 691 L 582 701 L 583 709 L 586 714 L 585 708 L 587 705 L 589 707 L 589 711 L 591 714 L 590 719 L 592 724 L 595 728 L 596 726 L 599 727 L 599 732 L 601 736 L 601 731 L 598 720 L 599 713 L 598 681 L 596 677 L 597 674 L 597 665 L 595 660 L 595 647 L 592 645 L 594 643 L 594 641 L 592 639 Z" />
    <path class="orange" d="M 566 611 L 566 614 L 564 616 L 566 628 L 565 648 L 567 657 L 567 667 L 568 668 L 568 673 L 571 673 L 570 665 L 572 663 L 569 660 L 569 657 L 571 654 L 571 643 L 573 641 L 576 656 L 578 678 L 580 682 L 579 677 L 584 668 L 582 662 L 583 657 L 582 651 L 580 646 L 580 639 L 577 630 L 577 624 L 575 621 L 577 618 L 577 615 L 573 614 L 574 623 L 573 627 L 575 634 L 573 636 L 571 632 L 569 614 L 568 612 Z" />
    <path class="orange" d="M 509 574 L 513 573 L 518 573 L 521 576 L 522 578 L 515 580 L 512 579 L 510 578 Z" />
    <path class="orange" d="M 495 571 L 501 575 L 504 575 L 507 577 L 510 580 L 513 582 L 517 583 L 521 583 L 524 585 L 527 585 L 531 578 L 531 576 L 529 573 L 530 570 L 525 571 L 520 568 L 515 567 L 513 566 L 514 568 L 505 568 L 503 570 L 501 571 L 499 569 Z" />
    <path class="orange" d="M 414 550 L 413 553 L 416 556 L 418 556 L 419 552 L 417 551 L 416 550 Z" />
    <path class="orange" d="M 566 546 L 570 550 L 573 551 L 578 552 L 581 553 L 583 555 L 585 556 L 588 557 L 599 556 L 599 554 L 597 552 L 590 553 L 586 552 L 578 549 L 575 546 L 574 546 L 572 543 L 569 543 L 567 544 Z" />
    <path class="orange" d="M 486 541 L 487 545 L 485 547 L 483 548 L 478 548 L 476 546 L 476 544 L 479 542 L 483 543 Z" />
    <path class="orange" d="M 631 540 L 629 541 L 626 543 L 621 547 L 619 548 L 614 548 L 610 552 L 610 555 L 612 555 L 616 553 L 623 553 L 625 552 L 626 551 L 627 549 L 628 546 L 630 544 L 631 542 Z" />
    <path class="orange" d="M 385 537 L 383 539 L 384 541 L 386 544 L 389 547 L 392 554 L 394 556 L 396 557 L 399 557 L 403 559 L 407 564 L 410 564 L 411 560 L 408 560 L 406 559 L 402 556 L 395 549 L 394 546 Z" />
    <path class="orange" d="M 567 533 L 566 531 L 562 530 L 557 532 L 557 534 L 554 537 L 549 535 L 550 538 L 556 538 L 562 536 Z" />
    <path class="orange" d="M 469 529 L 470 532 L 474 532 L 474 536 L 472 538 L 469 538 L 466 537 L 466 534 L 467 531 Z" />
    <path class="orange" d="M 659 524 L 655 523 L 649 524 L 643 526 L 641 528 L 640 533 L 644 533 L 648 530 L 653 528 L 656 528 Z" />
    <path class="orange" d="M 675 516 L 672 518 L 669 519 L 662 519 L 663 523 L 665 524 L 667 524 L 671 522 L 674 520 Z" />
    <path class="orange" d="M 397 516 L 395 516 L 392 519 L 389 523 L 390 527 L 393 524 L 397 518 Z" />
    <path class="orange" d="M 592 514 L 591 518 L 591 520 L 592 522 L 597 522 L 599 520 L 599 517 L 597 515 Z" />
    <path class="orange" d="M 436 505 L 433 502 L 431 502 L 429 504 L 430 506 L 428 507 L 428 509 L 427 510 L 427 513 L 425 516 L 423 517 L 421 515 L 417 518 L 416 520 L 412 515 L 408 513 L 406 517 L 407 520 L 399 528 L 398 530 L 400 533 L 402 531 L 409 527 L 402 535 L 405 534 L 405 533 L 407 530 L 414 526 L 414 528 L 413 529 L 413 532 L 418 530 L 418 533 L 416 535 L 417 537 L 420 532 L 423 532 L 424 536 L 426 536 L 425 533 L 430 529 L 424 527 L 424 525 L 423 523 L 420 521 L 422 520 L 425 521 L 426 519 L 426 517 L 429 514 L 428 513 L 436 512 L 438 514 L 438 511 Z" />
    <path class="orange" d="M 410 473 L 407 474 L 404 477 L 402 477 L 399 480 L 392 483 L 391 484 L 390 487 L 385 492 L 383 489 L 377 494 L 379 497 L 381 496 L 383 494 L 383 493 L 389 491 L 389 490 L 398 481 L 402 478 L 404 477 L 408 476 L 408 475 Z" />
    <path class="orange" d="M 445 474 L 451 478 L 452 482 L 447 484 L 448 488 L 449 485 L 461 480 L 463 482 L 461 485 L 463 489 L 460 494 L 462 499 L 460 503 L 465 503 L 467 510 L 464 514 L 468 515 L 463 529 L 464 538 L 468 546 L 467 550 L 472 551 L 478 548 L 487 553 L 467 561 L 456 561 L 461 564 L 470 564 L 488 558 L 510 555 L 515 557 L 520 556 L 518 551 L 508 554 L 501 554 L 499 552 L 492 553 L 491 547 L 493 545 L 499 547 L 498 543 L 495 543 L 495 540 L 500 536 L 504 539 L 508 538 L 510 545 L 512 537 L 516 542 L 511 531 L 500 531 L 494 537 L 492 534 L 495 531 L 491 533 L 489 531 L 486 532 L 483 541 L 477 523 L 478 527 L 475 529 L 473 523 L 470 522 L 472 515 L 476 512 L 479 514 L 486 509 L 487 502 L 490 501 L 496 506 L 491 506 L 494 517 L 495 514 L 509 511 L 512 508 L 511 505 L 501 507 L 500 503 L 502 501 L 488 497 L 490 495 L 503 496 L 504 491 L 500 495 L 494 493 L 480 494 L 471 490 L 467 492 L 464 487 L 469 481 L 474 487 L 481 486 L 483 483 L 480 474 L 478 473 L 473 477 L 474 481 L 463 479 L 449 472 Z" />
    <path class="orange" d="M 588 468 L 585 469 L 578 472 L 576 473 L 574 475 L 573 475 L 572 477 L 574 479 L 575 475 L 581 476 L 586 474 L 589 471 Z" />
    <path class="orange" d="M 619 331 L 611 338 L 606 338 L 604 339 L 603 347 L 603 349 L 605 348 L 605 347 L 607 345 L 607 342 L 609 340 L 611 340 L 612 337 L 615 337 L 615 335 L 617 333 L 618 333 Z" />
    <path class="orange" d="M 623 333 L 625 334 L 629 332 L 636 333 L 639 335 L 641 331 L 643 330 L 645 332 L 643 335 L 647 339 L 652 340 L 651 337 L 650 337 L 650 333 L 648 334 L 646 332 L 648 330 L 644 328 L 634 326 L 627 331 Z" />
    <path class="orange" d="M 642 319 L 643 321 L 643 322 L 644 323 L 651 326 L 652 331 L 656 330 L 669 331 L 676 328 L 682 328 L 683 327 L 686 327 L 683 326 L 682 325 L 679 325 L 678 323 L 674 321 L 665 320 L 664 318 L 662 317 L 665 315 L 664 313 L 664 311 L 662 311 L 661 315 L 656 314 L 657 316 L 660 319 L 655 320 Z" />
    <path class="orange" d="M 366 310 L 372 311 L 373 310 L 383 309 L 389 312 L 387 314 L 384 315 L 377 314 L 373 317 L 377 315 L 381 319 L 382 321 L 381 323 L 385 321 L 390 322 L 392 319 L 396 319 L 396 320 L 398 322 L 400 322 L 399 318 L 402 316 L 402 320 L 406 320 L 410 322 L 411 324 L 414 325 L 415 328 L 420 329 L 420 332 L 423 331 L 423 325 L 422 323 L 420 323 L 418 321 L 418 317 L 413 313 L 412 311 L 412 308 L 406 309 L 404 307 L 404 305 L 406 303 L 407 300 L 399 302 L 396 302 L 395 301 L 392 302 L 390 305 L 382 305 L 380 303 L 377 306 Z" />
    <path class="orange" d="M 425 301 L 430 302 L 439 301 L 442 303 L 444 301 L 446 301 L 448 299 L 457 300 L 466 299 L 468 301 L 477 299 L 510 301 L 511 300 L 513 300 L 514 301 L 517 301 L 521 299 L 523 299 L 525 302 L 533 301 L 533 298 L 487 298 L 481 296 L 476 297 L 459 296 L 431 296 L 428 298 L 426 297 Z" />
    <path class="orange" d="M 664 285 L 667 287 L 669 288 L 672 288 L 675 290 L 678 291 L 682 292 L 690 293 L 694 293 L 693 291 L 686 291 L 683 289 L 679 288 L 672 288 L 668 284 Z" />
    <path class="orange" d="M 755 273 L 754 275 L 755 278 L 753 279 L 752 282 L 755 285 L 756 283 Z" />
    <path class="orange" d="M 530 258 L 522 258 L 524 260 L 520 261 L 519 259 L 517 259 L 516 263 L 514 263 L 513 261 L 510 262 L 508 259 L 510 257 L 513 259 L 513 256 L 505 254 L 501 258 L 495 257 L 495 255 L 491 254 L 488 256 L 481 257 L 461 257 L 459 254 L 463 251 L 493 249 L 493 241 L 478 243 L 470 242 L 467 244 L 460 244 L 458 242 L 451 254 L 448 255 L 446 253 L 438 251 L 414 254 L 423 256 L 439 255 L 443 257 L 458 256 L 465 262 L 464 264 L 480 268 L 479 271 L 471 270 L 468 272 L 459 272 L 455 270 L 444 272 L 434 270 L 429 271 L 425 267 L 418 270 L 447 275 L 453 274 L 458 276 L 499 273 L 509 275 L 511 272 L 507 268 L 509 266 L 531 264 Z" />
    <path class="orange" d="M 245 295 L 250 303 L 251 312 L 254 315 L 254 307 L 257 311 L 264 309 L 274 303 L 279 298 L 282 298 L 284 294 L 280 292 L 284 289 L 300 285 L 308 285 L 315 289 L 316 293 L 334 291 L 351 285 L 358 280 L 386 275 L 389 269 L 383 272 L 377 272 L 379 274 L 377 276 L 364 277 L 351 281 L 348 278 L 348 271 L 351 269 L 349 267 L 343 272 L 339 270 L 328 270 L 320 278 L 316 278 L 313 276 L 307 278 L 300 278 L 286 286 L 280 284 L 275 285 L 270 291 L 263 285 L 259 277 L 261 258 L 265 250 L 259 253 L 259 251 L 264 243 L 268 244 L 270 242 L 270 238 L 266 238 L 261 243 L 252 261 L 252 265 L 247 279 L 248 282 L 253 277 L 253 285 L 251 288 L 247 286 Z" />
    <path class="orange" d="M 647 214 L 649 216 L 649 217 L 651 219 L 650 222 L 652 224 L 653 227 L 651 232 L 650 227 L 648 225 L 648 222 L 646 220 L 645 218 Z" />
    <path class="orange" d="M 736 192 L 736 194 L 740 200 L 744 204 L 743 202 L 742 199 L 739 195 Z" />
    <path class="orange" d="M 547 181 L 545 183 L 544 183 L 543 188 L 541 191 L 539 193 L 537 193 L 535 192 L 534 191 L 533 189 L 535 187 L 540 186 L 540 183 L 544 179 Z" />
    <path class="orange" d="M 525 157 L 525 159 L 526 160 L 525 167 L 531 179 L 532 184 L 531 187 L 532 192 L 534 196 L 534 202 L 532 204 L 532 209 L 534 209 L 537 212 L 541 212 L 544 208 L 548 195 L 552 196 L 555 199 L 556 202 L 560 205 L 562 204 L 564 201 L 568 201 L 569 197 L 571 198 L 572 196 L 574 194 L 575 194 L 577 188 L 573 187 L 573 185 L 575 183 L 570 182 L 569 181 L 565 182 L 562 179 L 564 177 L 564 173 L 566 172 L 566 170 L 563 170 L 560 167 L 558 163 L 549 165 L 549 166 L 547 168 L 545 168 L 543 169 L 542 172 L 540 174 L 535 174 L 533 172 L 530 171 L 531 165 L 528 161 L 527 156 Z" />
    <path class="orange" d="M 429 106 L 426 106 L 423 108 L 419 109 L 419 110 L 418 112 L 423 112 Z" />
    <path class="orange" d="M 451 96 L 448 96 L 444 97 L 441 98 L 435 102 L 437 102 L 438 101 L 441 100 L 444 100 L 449 97 Z" />
    <path class="orange" d="M 518 84 L 515 82 L 512 83 L 504 83 L 503 82 L 501 82 L 493 84 L 474 86 L 466 86 L 469 86 L 471 88 L 471 90 L 477 88 L 483 87 L 486 88 L 492 86 L 500 85 L 506 86 L 510 85 Z" />
    <path class="orange" d="M 522 82 L 541 89 L 521 90 L 518 96 L 558 106 L 561 109 L 554 111 L 564 111 L 565 114 L 570 112 L 575 120 L 577 116 L 581 129 L 595 130 L 599 139 L 595 159 L 611 157 L 622 160 L 650 194 L 650 202 L 643 206 L 642 201 L 638 201 L 628 191 L 617 194 L 616 197 L 636 206 L 644 224 L 644 229 L 635 235 L 633 244 L 620 225 L 613 227 L 612 236 L 605 239 L 605 226 L 596 229 L 587 227 L 588 231 L 579 246 L 574 244 L 567 250 L 547 251 L 543 256 L 558 257 L 554 254 L 557 251 L 561 253 L 561 258 L 585 254 L 592 249 L 592 241 L 598 235 L 603 237 L 604 247 L 610 253 L 615 246 L 623 254 L 620 258 L 622 260 L 627 257 L 631 245 L 644 252 L 644 258 L 651 259 L 658 252 L 669 254 L 670 244 L 661 234 L 655 219 L 662 201 L 656 190 L 636 170 L 624 148 L 619 149 L 618 145 L 610 155 L 604 153 L 602 145 L 606 141 L 598 132 L 599 125 L 604 124 L 575 110 L 568 103 L 539 95 L 539 92 L 559 88 L 537 82 Z" />
  </g>
  <g id="ink-shade">
    <path class="ink" d="M 593 880 L 593 884 L 590 893 L 586 893 L 587 891 L 589 888 L 589 882 L 590 880 Z" />
    <path class="ink" d="M 413 811 L 412 813 L 415 820 L 415 837 L 421 859 L 427 871 L 458 902 L 467 919 L 465 916 L 463 903 L 465 901 L 471 900 L 487 916 L 487 919 L 490 914 L 497 913 L 498 910 L 500 911 L 502 908 L 505 910 L 510 908 L 515 911 L 518 910 L 518 902 L 516 899 L 517 895 L 520 892 L 534 889 L 546 881 L 546 879 L 534 881 L 520 879 L 507 887 L 499 879 L 499 876 L 495 871 L 489 868 L 490 862 L 484 856 L 474 855 L 468 858 L 477 871 L 479 869 L 481 871 L 484 879 L 482 886 L 474 895 L 468 889 L 468 886 L 474 885 L 450 867 L 450 870 L 447 872 L 438 866 L 426 851 L 420 840 L 419 823 Z" />
    <path class="ink" d="M 612 807 L 610 811 L 609 818 L 608 821 L 606 826 L 603 831 L 601 836 L 601 838 L 600 839 L 600 841 L 602 839 L 609 825 L 611 817 L 611 812 L 612 811 Z" />
    <path class="ink" d="M 629 801 L 618 834 L 620 809 L 614 822 L 613 818 L 608 836 L 610 836 L 609 841 L 606 845 L 605 843 L 599 856 L 584 867 L 582 865 L 588 850 L 587 845 L 583 851 L 578 845 L 580 836 L 557 852 L 554 864 L 558 868 L 557 871 L 566 869 L 575 857 L 580 857 L 580 859 L 570 868 L 561 882 L 550 884 L 545 887 L 542 892 L 542 897 L 546 903 L 551 905 L 540 913 L 536 922 L 526 928 L 526 934 L 529 936 L 527 938 L 515 940 L 503 935 L 487 932 L 488 934 L 496 938 L 507 938 L 514 942 L 523 943 L 545 935 L 554 925 L 560 922 L 578 919 L 584 916 L 594 906 L 600 893 L 603 881 L 602 872 L 619 844 Z" />
    <path class="ink" d="M 507 782 L 505 784 L 503 788 L 500 791 L 498 795 L 499 810 L 499 796 L 500 794 L 503 791 L 506 786 Z" />
    <path class="ink" d="M 594 761 L 593 763 L 594 767 L 589 772 L 588 766 L 591 761 Z" />
    <path class="ink" d="M 410 718 L 408 747 L 409 772 L 411 782 L 410 797 L 412 804 L 414 801 L 418 804 L 425 804 L 433 807 L 441 815 L 444 816 L 450 822 L 457 827 L 465 826 L 468 828 L 470 828 L 475 826 L 480 822 L 480 820 L 474 825 L 471 826 L 461 825 L 458 822 L 453 811 L 445 803 L 434 798 L 425 797 L 422 794 L 422 789 L 419 780 L 416 779 L 414 777 L 412 769 L 412 750 L 410 740 L 411 736 Z" />
    <path class="ink" d="M 609 711 L 608 714 L 610 721 L 611 728 L 612 737 L 613 752 L 614 739 L 613 731 L 612 726 L 610 721 L 610 716 L 609 715 Z" />
    <path class="ink" d="M 453 549 L 458 547 L 457 551 L 459 551 L 461 548 L 463 550 L 463 553 L 461 555 L 457 553 L 453 552 Z" />
    <path class="ink" d="M 416 546 L 418 550 L 420 552 L 419 557 L 416 557 L 414 556 L 411 552 L 413 549 Z" />
    <path class="ink" d="M 412 546 L 411 552 L 409 552 L 407 551 L 407 547 L 408 547 Z" />
    <path class="ink" d="M 557 549 L 560 546 L 569 542 L 572 542 L 573 544 L 578 548 L 586 551 L 591 552 L 597 551 L 600 554 L 600 556 L 598 558 L 588 558 L 583 556 L 581 554 L 572 551 L 561 550 Z" />
    <path class="ink" d="M 486 542 L 484 544 L 477 544 L 478 547 L 483 547 L 485 546 Z" />
    <path class="ink" d="M 631 539 L 632 542 L 627 551 L 625 553 L 623 554 L 616 554 L 612 556 L 609 555 L 609 552 L 614 547 L 619 547 L 621 546 L 626 542 L 629 540 Z" />
    <path class="ink" d="M 512 538 L 511 540 L 511 545 L 513 552 L 514 550 L 514 540 Z" />
    <path class="ink" d="M 500 537 L 496 541 L 494 542 L 498 542 L 500 544 L 503 552 L 506 547 L 507 553 L 507 548 L 508 547 L 508 541 L 507 540 L 507 538 L 504 540 L 502 537 Z" />
    <path class="ink" d="M 382 538 L 385 536 L 395 546 L 396 549 L 402 555 L 406 558 L 408 559 L 411 559 L 413 562 L 410 565 L 407 565 L 403 560 L 399 558 L 396 558 L 394 557 L 391 554 L 388 547 L 385 544 L 383 541 Z" />
    <path class="ink" d="M 606 534 L 602 538 L 600 539 L 597 539 L 595 537 L 597 535 L 599 535 L 601 533 L 603 532 Z" />
    <path class="ink" d="M 469 530 L 469 532 L 467 534 L 467 537 L 470 536 L 472 537 L 473 532 L 469 532 Z" />
    <path class="ink" d="M 569 522 L 571 522 L 573 524 L 572 528 L 569 528 L 567 526 L 567 524 Z" />
    <path class="ink" d="M 677 518 L 674 521 L 671 523 L 667 525 L 665 525 L 663 524 L 661 522 L 662 518 L 669 518 L 672 517 L 675 515 Z" />
    <path class="ink" d="M 592 513 L 597 514 L 600 517 L 600 520 L 597 523 L 591 522 L 590 520 L 590 518 L 589 516 Z" />
    <path class="ink" d="M 668 504 L 670 504 L 675 509 L 675 511 L 673 513 L 671 513 L 669 511 L 668 509 Z" />
    <path class="ink" d="M 636 482 L 646 492 L 642 495 L 640 493 L 638 489 L 634 485 Z" />
    <path class="ink" d="M 564 477 L 566 477 L 569 480 L 569 486 L 567 486 L 563 484 L 561 481 L 562 479 Z" />
    <path class="ink" d="M 410 472 L 411 474 L 404 486 L 411 487 L 417 482 L 418 485 L 415 490 L 416 494 L 415 498 L 421 494 L 425 488 L 429 486 L 429 491 L 426 497 L 428 498 L 432 494 L 433 497 L 431 500 L 436 499 L 435 504 L 440 514 L 437 515 L 436 513 L 429 513 L 427 520 L 425 522 L 421 521 L 424 523 L 425 527 L 430 528 L 430 531 L 426 533 L 426 537 L 424 537 L 421 532 L 418 537 L 415 537 L 417 530 L 412 531 L 413 526 L 408 530 L 404 536 L 401 534 L 408 526 L 399 534 L 397 530 L 406 519 L 401 522 L 395 530 L 393 528 L 401 516 L 396 520 L 390 528 L 387 524 L 395 515 L 395 513 L 388 519 L 384 519 L 392 507 L 390 507 L 386 511 L 382 511 L 375 515 L 371 516 L 368 515 L 368 513 L 381 502 L 381 499 L 386 493 L 378 498 L 376 494 L 383 488 L 385 491 L 392 482 Z" />
    <path class="ink" d="M 588 467 L 590 469 L 590 471 L 586 475 L 580 477 L 575 476 L 575 478 L 576 483 L 573 480 L 571 476 L 573 474 L 576 472 L 585 468 Z" />
    <path class="ink" d="M 552 452 L 553 457 L 555 457 L 557 459 L 559 460 L 561 460 L 559 456 L 559 450 L 557 450 L 558 453 L 555 455 Z" />
    <path class="ink" d="M 569 440 L 566 440 L 567 445 L 565 445 L 566 447 L 569 449 L 568 457 L 567 457 L 567 460 L 570 459 L 570 442 Z" />
    <path class="ink" d="M 428 401 L 426 402 L 425 403 L 425 404 L 424 406 L 429 410 L 429 408 L 427 403 Z" />
    <path class="ink" d="M 585 333 L 582 335 L 583 337 L 584 343 L 588 339 Z" />
    <path class="ink" d="M 587 320 L 584 321 L 584 324 L 585 325 L 585 330 L 587 326 L 588 326 L 589 324 Z" />
    <path class="ink" d="M 247 306 L 249 312 L 253 320 L 258 327 L 261 330 L 264 331 L 268 333 L 274 335 L 281 336 L 287 339 L 292 340 L 290 339 L 289 338 L 284 337 L 273 332 L 270 332 L 268 331 L 266 329 L 264 328 L 261 328 L 258 325 L 252 316 L 250 312 L 250 310 L 249 308 Z" />
    <path class="ink" d="M 598 303 L 604 306 L 603 309 L 602 309 L 600 310 L 598 308 Z" />
    <path class="ink" d="M 587 305 L 589 303 L 593 303 L 595 305 L 590 309 L 588 307 Z" />
    <path class="ink" d="M 430 306 L 425 306 L 425 298 L 422 299 L 419 297 L 406 298 L 397 301 L 400 300 L 408 301 L 405 305 L 406 308 L 413 308 L 414 313 L 419 317 L 419 320 L 423 323 L 426 333 L 427 347 L 425 349 L 410 349 L 403 352 L 385 352 L 362 349 L 342 343 L 339 344 L 349 346 L 364 351 L 382 353 L 403 353 L 412 350 L 422 351 L 428 350 L 427 342 L 428 320 L 427 308 L 430 308 Z" />
    <path class="ink" d="M 551 294 L 484 296 L 602 312 L 591 320 L 601 319 L 594 449 L 581 457 L 575 439 L 578 461 L 499 476 L 511 494 L 505 485 L 489 497 L 512 504 L 516 523 L 527 506 L 535 522 L 568 533 L 538 538 L 531 527 L 530 544 L 527 528 L 517 540 L 525 560 L 457 563 L 477 556 L 466 556 L 461 481 L 446 488 L 441 476 L 473 475 L 430 451 L 428 420 L 408 464 L 342 528 L 419 568 L 416 641 L 423 567 L 550 571 L 573 635 L 578 615 L 581 685 L 588 667 L 593 680 L 599 622 L 618 751 L 608 768 L 601 721 L 601 779 L 586 698 L 586 741 L 566 796 L 572 808 L 594 771 L 589 807 L 551 814 L 539 833 L 531 790 L 512 770 L 533 842 L 554 817 L 594 816 L 618 768 L 629 783 L 603 565 L 629 555 L 643 525 L 668 528 L 682 511 L 599 437 L 600 358 L 715 346 L 603 354 L 604 338 L 652 329 L 642 318 L 662 314 Z" />
    <path class="ink" d="M 656 283 L 658 281 L 663 283 L 671 284 L 685 283 L 688 285 L 690 287 L 690 288 L 692 290 L 697 294 L 690 294 L 682 293 L 678 292 L 658 285 Z" />
    <path class="ink" d="M 384 276 L 378 277 L 374 279 L 367 279 L 358 281 L 354 283 L 351 286 L 336 292 L 329 292 L 323 294 L 316 294 L 314 292 L 314 289 L 312 289 L 310 287 L 307 286 L 304 287 L 303 286 L 300 286 L 295 288 L 291 288 L 282 291 L 282 294 L 285 294 L 285 296 L 282 299 L 279 299 L 263 314 L 262 316 L 263 319 L 263 317 L 270 310 L 277 305 L 280 305 L 283 303 L 286 303 L 295 299 L 325 300 L 338 299 L 342 297 L 346 297 L 352 295 L 369 286 L 373 282 L 383 278 Z" />
    <path class="ink" d="M 267 245 L 263 245 L 263 247 L 261 249 L 260 251 L 260 253 L 262 252 L 262 251 L 264 249 L 265 249 Z" />
    <path class="ink" d="M 737 236 L 739 236 L 742 239 L 745 245 L 746 250 L 750 254 L 750 256 L 753 259 L 753 262 L 755 265 L 755 270 L 757 275 L 757 283 L 756 285 L 753 285 L 753 284 L 751 282 L 748 276 L 748 273 L 743 264 L 743 261 L 741 258 L 741 255 L 738 246 L 734 238 Z" />
    <path class="ink" d="M 276 214 L 270 220 L 263 231 L 260 238 L 255 245 L 253 249 L 248 262 L 245 273 L 244 279 L 245 290 L 247 285 L 249 285 L 252 287 L 253 283 L 251 277 L 251 280 L 248 283 L 246 281 L 247 274 L 251 265 L 251 261 L 256 250 L 259 246 L 260 242 L 265 234 L 265 232 L 268 226 L 274 218 Z" />
    <path class="ink" d="M 616 198 L 614 200 L 614 201 L 611 204 L 611 208 L 609 210 L 607 208 L 607 207 L 605 206 L 605 208 L 607 212 L 607 226 L 605 228 L 607 239 L 608 236 L 611 236 L 611 233 L 613 232 L 610 231 L 612 229 L 613 226 L 620 224 L 622 226 L 625 227 L 625 231 L 627 233 L 627 236 L 631 237 L 630 242 L 633 243 L 635 234 L 638 234 L 640 232 L 641 230 L 642 230 L 643 222 L 640 220 L 639 218 L 639 216 L 637 214 L 636 207 L 632 206 L 632 204 L 630 202 L 628 202 L 626 203 L 621 198 L 619 197 Z" />
    <path class="ink" d="M 546 181 L 544 180 L 541 183 L 541 186 L 539 188 L 535 188 L 535 191 L 537 192 L 540 191 L 540 190 L 542 188 L 542 184 L 544 182 Z" />
    <path class="ink" d="M 703 172 L 705 171 L 719 182 L 724 187 L 729 193 L 732 198 L 733 203 L 729 200 L 723 194 L 718 187 L 714 183 L 708 178 L 704 174 Z" />
    <path class="ink" d="M 606 112 L 609 116 L 613 117 L 612 120 L 610 120 L 607 118 L 604 115 Z" />
    <path class="ink" d="M 391 279 L 483 283 L 606 275 L 676 299 L 736 305 L 754 311 L 762 318 L 762 324 L 742 339 L 761 333 L 779 315 L 776 267 L 755 221 L 734 190 L 704 162 L 621 108 L 556 87 L 593 102 L 554 92 L 539 94 L 568 102 L 603 122 L 599 132 L 606 143 L 606 154 L 617 145 L 624 147 L 637 170 L 657 190 L 663 202 L 656 219 L 671 244 L 671 253 L 658 253 L 649 260 L 631 246 L 622 261 L 622 254 L 615 247 L 610 254 L 598 236 L 593 249 L 585 255 L 561 259 L 557 252 L 557 258 L 532 260 L 530 266 L 508 269 L 512 273 L 509 276 Z" />
  </g>
</svg>